<?xml version="1.0" encoding="UTF-8" ?>
<!DOCTYPE svg PUBLIC "-//W3C//DTD SVG 1.1//EN" "http://www.w3.org/Graphics/SVG/1.1/DTD/svg11.dtd">
<svg width="720pt" height="720pt" viewBox="0 0 720 720" version="1.1" xmlns="http://www.w3.org/2000/svg">
<g id="#f0b90bff">
<path fill="#f0b90b" opacity="1.00" d=" M 346.12 22.28 C 409.42 19.56 473.42 35.02 528.29 66.77 C 592.15 103.34 643.48 161.32 671.81 229.26 C 707.13 312.66 706.70 410.39 670.65 493.48 C 640.17 564.80 584.24 624.81 515.30 660.33 C 479.99 678.65 441.40 690.63 401.90 695.43 C 349.99 701.85 296.55 696.28 247.24 678.77 C 180.19 655.19 121.17 609.70 81.09 551.04 C 51.25 507.65 31.77 457.18 24.96 404.95 C 19.30 362.31 21.74 318.60 32.25 276.88 C 42.20 237.47 59.41 199.91 82.72 166.61 C 128.82 100.22 199.45 51.30 277.98 31.98 C 300.29 26.45 323.15 23.18 346.12 22.28 M 288.32 206.28 C 266.22 228.50 243.74 250.35 221.78 272.72 C 238.52 289.94 255.86 306.57 272.48 323.90 C 301.64 294.72 330.99 265.73 360.11 236.51 C 389.21 265.51 418.01 294.80 447.16 323.75 C 464.15 306.82 480.96 289.71 497.92 272.74 C 452.14 226.54 405.89 180.78 360.15 134.54 C 336.14 158.38 312.27 182.37 288.32 206.28 M 134.63 360.01 C 151.62 377.02 168.59 394.04 185.64 410.99 C 202.59 393.96 219.63 377.02 236.59 360.00 C 219.62 342.98 202.59 326.01 185.62 309.00 C 168.63 326.01 151.61 342.99 134.63 360.01 M 309.16 359.95 C 326.15 376.97 343.15 393.97 360.16 410.96 C 377.15 393.95 394.16 376.96 411.15 359.96 C 394.41 342.80 377.10 326.17 360.46 308.92 C 343.11 325.65 326.29 342.98 309.16 359.95 M 483.41 360.00 C 500.37 377.02 517.41 393.96 534.35 410.99 C 551.41 394.05 568.38 377.01 585.38 360.00 C 568.44 342.97 551.38 326.07 534.47 309.01 C 517.37 325.92 500.42 343.00 483.41 360.00 M 221.85 447.03 C 267.68 493.31 314.11 539.00 360.05 585.18 C 381.13 564.56 401.62 543.37 422.54 522.58 C 447.68 497.44 472.81 472.29 497.96 447.16 C 481.03 430.19 464.04 413.27 447.12 396.29 C 418.06 425.29 389.07 454.37 360.00 483.37 C 331.00 454.23 301.73 425.37 272.69 396.28 C 255.66 413.11 238.82 430.14 221.85 447.03 Z" />
</g>
<g id="#ffffffff">
<path fill="#ffffff" opacity="1.00" d=" M 288.32 206.28 C 312.27 182.37 336.14 158.38 360.15 134.54 C 405.89 180.78 452.14 226.54 497.92 272.74 C 480.96 289.71 464.15 306.82 447.16 323.75 C 418.01 294.80 389.21 265.51 360.11 236.51 C 330.99 265.73 301.64 294.72 272.48 323.90 C 255.86 306.57 238.52 289.94 221.78 272.72 C 243.74 250.35 266.22 228.50 288.32 206.28 Z" />
<path fill="#ffffff" opacity="1.00" d=" M 134.63 360.01 C 151.61 342.99 168.63 326.01 185.62 309.00 C 202.59 326.01 219.62 342.98 236.59 360.00 C 219.63 377.02 202.59 393.96 185.64 410.99 C 168.59 394.04 151.62 377.02 134.63 360.01 Z" />
<path fill="#ffffff" opacity="1.00" d=" M 309.16 359.95 C 326.29 342.98 343.11 325.65 360.46 308.92 C 377.10 326.17 394.41 342.80 411.15 359.96 C 394.16 376.96 377.15 393.95 360.16 410.96 C 343.15 393.97 326.15 376.97 309.16 359.95 Z" />
<path fill="#ffffff" opacity="1.00" d=" M 483.41 360.00 C 500.42 343.00 517.37 325.92 534.47 309.01 C 551.38 326.07 568.44 342.97 585.38 360.00 C 568.38 377.01 551.41 394.05 534.35 410.99 C 517.41 393.96 500.37 377.02 483.41 360.00 Z" />
<path fill="#ffffff" opacity="1.00" d=" M 221.85 447.03 C 238.82 430.14 255.66 413.11 272.69 396.28 C 301.73 425.37 331.00 454.23 360.00 483.37 C 389.07 454.37 418.06 425.29 447.12 396.29 C 464.04 413.27 481.03 430.19 497.96 447.16 C 472.81 472.29 447.68 497.44 422.54 522.58 C 401.62 543.37 381.13 564.56 360.05 585.18 C 314.11 539.00 267.68 493.31 221.85 447.03 Z" />
</g>
</svg>
