<?xml version="1.0" standalone="no"?>
<!DOCTYPE svg PUBLIC "-//W3C//DTD SVG 20010904//EN"
 "http://www.w3.org/TR/2001/REC-SVG-20010904/DTD/svg10.dtd">
<svg version="1.0" xmlns="http://www.w3.org/2000/svg"
 width="2520.000000pt" height="1620.000000pt" viewBox="0 0 2520.000000 1620.000000"
 preserveAspectRatio="xMidYMid meet">

<g transform="translate(0.000000,1620.000000) scale(0.100000,-0.100000)"
fill="#000000" stroke="none">
<path d="M0 15914 l0 -286 38 22 c47 29 678 391 837 482 l120 68 -497 0 -498
0 0 -286z"/>
<path d="M925 16106 c-219 -127 -380 -220 -650 -376 -126 -73 -240 -139 -252
-147 l-23 -13 0 -326 0 -326 38 23 c20 12 244 144 497 292 442 259 582 341
1310 767 182 106 332 195 334 197 2 1 -243 3 -545 2 l-549 0 -160 -93z"/>
<path d="M2205 16158 c-38 -23 -158 -93 -265 -156 -107 -63 -244 -144 -305
-180 -60 -35 -135 -79 -165 -97 -177 -104 -481 -284 -730 -430 -157 -92 -386
-228 -510 -301 l-225 -132 -3 -466 c-1 -256 0 -466 3 -466 2 0 207 122 455
271 l451 270 422 -1 c232 -1 433 -1 447 -1 16 1 30 11 41 29 8 15 38 38 65 52
42 21 61 25 139 24 50 -1 103 -7 119 -13 23 -9 33 -8 60 8 17 10 130 79 251
154 121 74 239 145 261 158 23 13 126 76 230 140 296 182 767 470 1274 779
256 155 497 302 535 326 131 80 169 73 -385 74 l-495 0 -175 -106 c-172 -104
-316 -191 -1040 -627 -201 -121 -371 -226 -378 -232 -11 -10 -9 -17 12 -40
111 -120 -140 -228 -334 -144 -45 19 -110 77 -110 98 0 26 25 72 47 87 60 39
187 50 282 24 30 -8 41 -5 85 22 73 45 1302 783 1419 852 53 31 97 59 97 62 0
2 -339 4 -752 4 l-753 -1 -70 -41z"/>
<path d="M4855 16138 c-160 -98 -347 -213 -535 -328 -96 -59 -283 -174 -415
-255 -132 -81 -350 -215 -485 -298 -135 -83 -301 -185 -370 -227 -301 -186
-652 -401 -733 -450 l-87 -52 30 -34 c37 -42 39 -82 6 -117 -40 -43 -91 -59
-191 -60 -79 -1 -98 3 -153 28 -35 15 -74 41 -87 57 l-24 28 -434 0 -435 0
-333 -201 c-184 -111 -395 -239 -469 -284 l-135 -82 -3 -358 -2 -357 22 14
c13 8 147 91 298 183 151 93 345 211 430 263 85 53 268 164 407 249 l252 153
443 0 443 1 20 32 c11 18 38 41 59 51 50 25 176 33 245 16 l51 -12 212 132
c117 73 272 169 343 215 124 78 298 186 698 433 207 128 283 176 379 238 37
24 70 44 72 44 3 0 54 31 113 69 99 63 262 165 1098 684 165 102 336 209 380
236 l80 50 -545 1 -545 0 -100 -62z"/>
<path d="M6005 16129 c-60 -38 -137 -86 -170 -107 -33 -21 -114 -72 -180 -114
-66 -41 -199 -125 -295 -185 -96 -61 -247 -155 -335 -210 -88 -55 -439 -274
-780 -488 -341 -214 -692 -433 -780 -488 -162 -101 -406 -253 -570 -357 -49
-31 -107 -67 -127 -79 -42 -25 -45 -32 -21 -52 9 -8 22 -29 30 -47 12 -30 12
-37 -4 -64 -62 -106 -333 -107 -435 -3 l-33 35 -435 0 -435 0 -35 -24 c-19
-12 -183 -114 -365 -226 -181 -112 -377 -232 -435 -268 -58 -36 -125 -77 -150
-92 -25 -15 -112 -69 -195 -120 -82 -51 -174 -107 -202 -124 l-53 -31 0 -180
0 -181 45 -12 44 -12 358 222 c197 121 471 291 608 376 365 226 457 284 483
299 l23 14 -26 30 c-32 39 -32 79 0 117 34 41 102 62 195 62 98 0 171 -22 219
-66 l38 -34 438 0 438 0 116 73 c250 159 583 369 716 452 77 48 163 102 191
121 28 18 86 55 130 82 90 56 318 199 444 279 47 30 175 111 285 180 110 69
223 140 250 158 28 18 122 77 210 132 88 55 248 156 355 223 107 68 221 139
252 159 335 209 517 324 588 369 47 30 109 70 138 89 28 18 52 30 52 26 0 -5
4 -3 8 2 4 6 26 23 50 38 30 20 47 25 59 19 13 -8 12 -11 -8 -26 -52 -37 -393
-255 -499 -320 -36 -21 -103 -64 -150 -94 -130 -84 -162 -105 -500 -319 -173
-109 -375 -237 -447 -284 -73 -46 -161 -102 -195 -123 -441 -278 -738 -466
-803 -508 -34 -22 -784 -498 -1111 -704 l-101 -64 -444 0 -444 0 -15 -33 c-18
-38 -67 -73 -124 -88 -48 -13 -176 -6 -222 12 -30 12 -37 8 -285 -146 -140
-88 -364 -228 -499 -312 -275 -171 -310 -193 -535 -333 -88 -55 -164 -101
-169 -103 -6 -2 2 -19 17 -39 32 -41 37 -76 17 -113 -18 -34 -86 -74 -141 -83
l-44 -8 -3 -132 -3 -132 86 55 c47 30 142 90 212 134 71 43 180 111 243 151
195 124 1102 692 1150 720 25 15 104 64 175 110 l130 82 1995 -7 c1097 -3
2175 -8 2395 -10 220 -2 627 -4 904 -4 277 -1 502 -3 499 -6 -3 -3 -49 -6
-101 -6 -53 0 -99 -4 -102 -10 -4 -5 -12 -9 -18 -9 -9 0 -9 2 0 8 6 4 -15 7
-48 7 -32 0 -59 -3 -59 -7 0 -5 -7 -8 -16 -8 -9 0 -12 5 -8 12 5 7 3 8 -5 3
-7 -4 -1226 -7 -2709 -6 l-2697 2 -50 -32 c-42 -27 -534 -338 -1025 -647 -127
-80 -347 -219 -767 -482 l-183 -115 0 -427 0 -428 1523 0 c2499 0 6440 -9
6445 -15 3 -3 -66 -6 -154 -7 l-159 -2 120 -6 c66 -3 -793 -7 -1910 -8 -1116
-1 -2428 -4 -2915 -7 -487 -2 -1350 -4 -1917 -5 l-1033 0 0 -180 0 -180 2758
0 c1516 0 3164 -3 3662 -5 498 -3 1012 -6 1143 -6 131 0 236 -3 233 -6 -16
-16 -873 -22 -4056 -28 -1581 -2 -3070 -5 -3307 -5 l-433 0 0 -313 0 -312 172
-96 c95 -53 390 -217 656 -364 l484 -268 1376 7 c2485 11 4648 15 4617 8 -19
-5 11 -9 85 -12 67 -4 -43 -7 -265 -9 -209 -1 -488 -4 -620 -6 -132 -2 -703
-6 -1270 -9 -1189 -7 -2128 -13 -3193 -22 l-752 -5 -63 34 c-34 19 -255 141
-492 272 -237 131 -495 274 -575 318 -80 44 -148 82 -152 84 -5 2 -8 -190 -8
-426 l0 -431 385 0 384 0 158 -89 c87 -48 250 -140 363 -203 113 -64 246 -138
295 -165 50 -28 144 -81 210 -118 66 -37 158 -89 205 -115 348 -194 521 -291
625 -350 66 -37 444 -249 840 -470 396 -221 770 -430 830 -465 169 -96 200
-113 340 -190 72 -40 179 -100 238 -134 l109 -61 44 15 c58 19 186 19 252 0
54 -16 123 -63 154 -106 11 -14 22 -44 25 -66 5 -35 1 -45 -27 -77 -36 -40
-71 -62 -116 -71 -45 -9 -172 -6 -212 5 -50 13 -141 69 -165 101 -27 38 -34
109 -13 142 l17 25 -93 53 c-104 58 -473 265 -558 312 -30 16 -89 49 -130 72
-41 23 -253 142 -470 263 -217 121 -530 295 -695 387 -165 92 -475 266 -690
385 -214 120 -505 282 -645 360 -140 78 -404 225 -586 326 l-330 184 -372 0
-372 0 0 -657 0 -658 63 -36 c34 -20 384 -222 777 -449 393 -227 767 -443 830
-480 207 -120 630 -365 890 -515 140 -81 284 -164 320 -185 56 -33 426 -248
620 -360 36 -20 137 -79 225 -130 88 -51 265 -153 394 -228 l235 -134 755 4
c416 3 621 2 456 -1 -283 -6 -357 -13 -309 -32 13 -5 7 -8 -23 -8 -24 -1 -43
4 -43 10 0 6 9 8 20 4 15 -5 18 -3 14 8 -7 18 -54 10 -54 -9 0 -12 -67 -14
-402 -16 -222 0 -413 0 -426 1 -13 1 -67 27 -120 58 -53 31 -140 81 -192 111
-172 100 -564 325 -630 362 -36 20 -92 53 -125 72 -205 119 -284 165 -490 283
-126 72 -288 166 -360 207 -71 41 -254 146 -405 233 -151 87 -405 233 -565
325 -159 92 -542 313 -850 490 -308 178 -570 329 -582 338 l-23 14 0 -603 0
-604 148 -86 c81 -47 246 -144 367 -216 121 -71 369 -218 550 -325 182 -107
443 -261 580 -343 138 -82 297 -176 355 -210 58 -34 179 -106 270 -160 182
-108 494 -293 665 -393 61 -36 165 -98 233 -139 l123 -73 669 0 c422 0 671 -4
675 -10 3 -6 11 -10 16 -10 6 0 7 5 3 12 -5 8 -2 9 12 3 10 -4 35 -11 54 -15
27 -6 18 -8 -43 -9 -50 -1 -76 3 -72 9 3 6 -4 10 -17 10 -18 0 -20 -2 -8 -10
8 -5 13 -10 10 -10 -23 -4 -343 -10 -782 -15 l-528 -6 -42 24 c-24 14 -106 62
-183 107 -77 46 -183 107 -235 138 -52 30 -115 67 -140 82 -25 15 -133 79
-240 142 -339 201 -933 550 -990 583 -92 54 -423 249 -840 495 -217 128 -443
261 -503 296 l-107 63 0 -862 0 -863 293 -178 c160 -98 319 -195 352 -216 54
-34 308 -189 563 -344 53 -32 176 -107 272 -166 96 -59 270 -165 385 -235 116
-70 259 -157 318 -194 59 -36 122 -75 140 -85 158 -94 393 -241 395 -248 2 -4
9 -8 15 -8 21 -1 117 -67 109 -75 -4 -5 -2 -5 5 -2 6 4 26 -2 45 -14 18 -11
69 -43 113 -70 l79 -49 296 -2 c162 -1 259 -4 215 -5 -43 -2 -85 -9 -92 -15
-9 -7 -13 -7 -13 1 0 16 -37 14 -43 -3 -4 -10 2 -16 16 -18 12 -2 -72 -5 -186
-6 l-208 -3 -52 32 c-54 34 -274 168 -362 222 -27 17 -75 45 -105 62 -30 18
-116 69 -190 115 -74 46 -178 109 -230 140 -52 32 -178 108 -280 170 -102 62
-237 144 -300 182 -110 66 -182 110 -425 258 -161 99 -882 536 -1010 613
l-110 66 -3 -427 c-1 -235 0 -432 2 -438 2 -6 73 -53 158 -106 240 -149 559
-347 723 -448 83 -51 173 -107 200 -125 28 -17 104 -65 170 -105 66 -41 181
-112 255 -158 74 -47 216 -134 314 -194 98 -60 191 -118 205 -127 14 -10 58
-37 96 -61 39 -24 95 -60 127 -82 31 -21 60 -38 64 -38 4 0 24 -11 43 -24 20
-13 88 -56 152 -96 112 -71 115 -74 97 -92 -20 -20 -33 -24 -22 -6 5 7 3 8 -5
4 -7 -5 -20 -1 -29 7 -9 8 -36 24 -59 37 -23 13 -39 28 -36 33 3 6 1 7 -5 3
-6 -4 -24 2 -39 12 -16 11 -53 35 -83 54 -30 19 -81 51 -113 71 -31 21 -59 37
-61 37 -3 0 -223 135 -376 231 -25 16 -65 40 -90 55 -25 15 -61 37 -80 49 -19
12 -96 59 -170 105 -74 45 -180 111 -235 145 -55 34 -114 70 -132 81 -69 42
-211 129 -258 159 -119 77 -803 495 -808 495 -4 0 -7 -203 -7 -450 l0 -450 68
-43 c37 -24 166 -106 287 -182 121 -76 353 -222 515 -325 162 -102 376 -237
475 -299 260 -164 295 -188 287 -196 -4 -5 -2 -5 5 -1 7 4 36 -9 65 -27 29
-19 66 -42 81 -51 16 -10 25 -22 21 -28 -4 -7 -3 -8 4 -4 15 9 51 -10 48 -26
-1 -7 -6 -19 -10 -27 -7 -11 -5 -13 8 -8 9 4 15 3 12 -2 -3 -5 1 -12 9 -15 13
-5 13 -2 0 24 -9 17 -13 30 -10 30 12 0 85 -53 85 -62 0 -5 5 -6 10 -3 6 3 10
1 10 -5 0 -6 4 -9 8 -6 5 3 31 -13 59 -34 28 -21 55 -35 59 -32 4 4 4 1 0 -6
-6 -9 -15 -6 -38 13 -16 14 -34 23 -39 19 -5 -3 -9 0 -9 6 0 8 -9 10 -27 5
-25 -6 -26 -5 -10 7 15 12 14 13 -15 15 -18 0 -27 -1 -20 -4 6 -2 12 -9 12
-15 0 -6 -9 -3 -20 7 -11 10 -20 15 -20 12 0 -3 -46 23 -102 59 -57 36 -102
70 -100 76 1 5 -2 7 -8 3 -9 -6 -119 58 -131 77 -3 5 -9 9 -13 9 -6 -2 -85 45
-203 120 -104 65 -172 107 -399 249 -119 74 -245 153 -280 175 -35 22 -128 80
-206 129 -79 49 -165 104 -193 121 -175 112 -262 165 -268 165 -4 0 -7 -211
-7 -469 l0 -468 286 -184 c158 -100 322 -206 366 -233 259 -166 368 -239 368
-247 0 -6 4 -8 9 -5 5 3 38 -13 73 -37 36 -23 75 -48 87 -55 12 -7 19 -18 15
-24 -4 -7 -3 -8 4 -4 14 9 124 -62 116 -75 -3 -5 -11 -9 -17 -9 -7 0 -6 4 3
10 9 6 10 10 3 10 -6 0 -19 7 -28 16 -12 13 -19 14 -30 4 -15 -12 -20 -4 -16
23 2 12 -37 8 -42 -5 -4 -10 -6 -10 -6 0 -1 6 -6 12 -12 12 -5 0 -7 -5 -4 -10
4 -6 -24 9 -62 34 -49 32 -67 50 -65 63 2 14 1 15 -7 4 -8 -12 -13 -12 -33 0
-12 9 -178 114 -368 234 -190 120 -388 246 -440 280 -52 34 -117 75 -145 93
l-50 31 -3 -677 c-3 -674 -2 -677 18 -692 62 -45 98 -78 92 -85 -4 -4 3 -5 14
-1 16 5 30 -2 53 -23 18 -17 35 -30 39 -30 10 -1 10 -24 -1 -38 -6 -9 -6 -13
2 -13 6 0 20 -9 32 -21 17 -17 23 -18 37 -7 15 12 16 11 3 -4 -14 -19 -26 -15
-71 22 -16 14 -21 23 -13 26 9 4 7 11 -7 26 -10 11 -23 18 -28 14 -12 -7 -45
28 -35 38 4 4 0 4 -10 0 -17 -6 -17 -7 0 -21 17 -13 17 -14 -2 -11 -12 2 -20
11 -20 22 0 11 -8 20 -18 22 -15 2 -16 0 -6 -12 10 -12 9 -13 -7 -8 -10 4 -31
16 -47 26 l-27 19 0 -185 0 -186 12600 0 12600 0 0 8100 0 8100 -9167 0 -9167
0 -63 -41 c-51 -34 -68 -40 -85 -32 -20 9 -18 11 23 35 32 19 48 23 57 16 8
-7 12 -7 12 0 0 5 -7 13 -16 16 -9 3 -165 6 -347 5 l-332 0 -110 -70z m1315
-119 c0 -5 -5 -10 -11 -10 -5 0 -7 5 -4 10 3 6 8 10 11 10 2 0 4 -4 4 -10z
m50 -5 c-7 -8 -17 -15 -23 -15 -6 0 -2 7 9 15 25 19 30 19 14 0z m-169 -74
c-13 -10 -21 -23 -17 -29 3 -6 -7 -20 -24 -32 -16 -12 -30 -17 -30 -11 0 6 -5
11 -11 11 -6 0 -8 -7 -5 -16 5 -13 4 -14 -7 -6 -10 9 -18 8 -33 -3 -19 -15
-19 -15 1 -9 20 6 20 6 0 -11 -17 -14 -27 -10 -26 10 0 4 37 31 83 60 83 55
114 71 69 36z m19 -15 c0 -3 -4 -8 -10 -11 -5 -3 -10 -1 -10 4 0 6 5 11 10 11
6 0 10 -2 10 -4z m-180 -106 c0 -20 -52 -55 -64 -43 -3 4 -6 1 -6 -5 0 -6 -14
-21 -31 -33 -26 -18 -33 -19 -40 -8 -8 11 -9 11 -7 -3 4 -19 -116 -103 -132
-93 -6 4 -9 1 -8 -5 2 -6 -27 -30 -64 -53 -37 -23 -144 -91 -237 -152 -94 -60
-239 -154 -323 -208 -195 -124 -359 -230 -426 -275 l-53 -35 24 -26 c61 -65
54 -108 -23 -151 -38 -21 -58 -25 -130 -25 -57 0 -102 6 -138 19 -67 23 -132
82 -132 120 0 36 45 81 96 95 50 14 153 14 209 0 l44 -11 163 104 c137 88 355
228 583 373 28 17 113 72 190 120 77 49 162 104 189 122 27 19 56 31 63 29 8
-3 12 -2 9 3 -7 11 64 60 139 96 17 8 44 25 60 39 37 31 45 32 45 6z m-2490
-1811 c70 -11 151 -50 179 -85 l17 -22 1300 -7 c940 -6 1301 -11 1306 -19 6
-8 8 -7 8 2 0 8 18 12 56 12 32 0 53 -4 49 -9 -3 -6 57 -10 152 -10 86 -1 159
-4 162 -7 3 -3 -674 -3 -1505 0 l-1511 5 -24 -36 c-37 -56 -87 -77 -188 -77
-270 -2 -391 197 -154 253 53 12 78 12 153 0z m3323 -146 c-13 -2 -35 -2 -50
0 -16 2 -5 4 22 4 28 0 40 -2 28 -4z m130 0 c-7 -2 -21 -2 -30 0 -10 3 -4 5
12 5 17 0 24 -2 18 -5z m-95 -460 c-15 -2 -42 -2 -60 0 -18 2 -6 4 27 4 33 0
48 -2 33 -4z m110 0 c-10 -2 -28 -2 -40 0 -13 2 -5 4 17 4 22 1 32 -1 23 -4z
m149 1 c-3 -3 -12 -4 -19 -1 -8 3 -5 6 6 6 11 1 17 -2 13 -5z m-2322 -520
c1735 -5 2182 -9 1819 -16 -65 -2 59 -5 276 -9 217 -3 -1047 -4 -2810 -3
l-3205 2 -120 -75 c-66 -41 -170 -107 -232 -146 -62 -40 -183 -117 -269 -172
-86 -55 -241 -154 -345 -220 -103 -66 -195 -125 -205 -130 -15 -10 -14 -14 10
-49 48 -71 26 -134 -61 -177 -39 -19 -64 -23 -138 -23 -108 0 -174 20 -233 70
-79 67 -64 142 38 192 49 24 66 27 150 26 52 -1 108 -7 123 -13 31 -12 3 -28
392 219 193 123 535 339 625 396 52 32 124 78 160 102 l65 42 1015 -5 c558 -2
1884 -7 2945 -11z m2023 -11 c-16 -2 -40 -2 -55 0 -16 2 -3 4 27 4 30 0 43 -2
28 -4z m565 -20 c-13 -2 -35 -2 -50 0 -16 2 -5 4 22 4 28 0 40 -2 28 -4z m135
0 c-10 -2 -26 -2 -35 0 -10 3 -2 5 17 5 19 0 27 -2 18 -5z m-3451 -487 c33
-10 69 -32 95 -57 l42 -40 605 -4 c333 -2 1052 -5 1596 -7 676 -2 869 -4 610
-8 -312 -4 -350 -6 -210 -10 94 -3 -452 -7 -1212 -8 l-1383 -2 -14 -33 c-8
-19 -30 -44 -52 -58 -35 -22 -50 -24 -155 -24 -109 0 -119 2 -174 30 -137 70
-139 178 -5 226 65 23 174 21 257 -5z m3426 -113 c-13 -2 -35 -2 -50 0 -16 2
-5 4 22 4 28 0 40 -2 28 -4z m130 0 c-7 -2 -19 -2 -25 0 -7 3 -2 5 12 5 14 0
19 -2 13 -5z m-535 -20 c-21 -2 -55 -2 -75 0 -21 2 -4 4 37 4 41 0 58 -2 38
-4z m89 1 c-3 -3 -12 -4 -19 -1 -8 3 -5 6 6 6 11 1 17 -2 13 -5z m40 0 c-3 -3
-12 -4 -19 -1 -8 3 -5 6 6 6 11 1 17 -2 13 -5z m-4599 -431 c34 -11 73 -34
101 -59 l46 -42 2030 -6 c1116 -3 2031 -9 2033 -11 3 -3 -17 -5 -44 -6 -39 -1
-44 -3 -24 -9 21 -7 19 -8 -17 -9 -24 -1 -43 3 -43 9 0 6 -10 6 -27 -1 -19 -7
-29 -7 -31 0 -2 6 -18 10 -35 10 l-32 -1 30 -8 c38 -9 17 -9 -2092 -10 -1466
0 -1743 -2 -1743 -14 0 -23 -40 -66 -83 -88 -35 -19 -59 -22 -142 -23 -90 0
-107 3 -163 29 -201 93 -137 255 102 256 48 0 101 -7 134 -17z m4249 -119 c-3
-3 -12 -4 -19 -1 -8 3 -5 6 6 6 11 1 17 -2 13 -5z m96 -1 c-7 -2 -21 -2 -30 0
-10 3 -4 5 12 5 17 0 24 -2 18 -5z m50 0 c-7 -2 -19 -2 -25 0 -7 3 -2 5 12 5
14 0 19 -2 13 -5z m140 0 c-7 -2 -19 -2 -25 0 -7 3 -2 5 12 5 14 0 19 -2 13
-5z m-266 -19 c-3 -3 -12 -4 -19 -1 -8 3 -5 6 6 6 11 1 17 -2 13 -5z m156 -1
c-7 -2 -21 -2 -30 0 -10 3 -4 5 12 5 17 0 24 -2 18 -5z m-35 -420 c-10 -2 -28
-2 -40 0 -13 2 -5 4 17 4 22 1 32 -1 23 -4z m-90 -20 c-10 -2 -28 -2 -40 0
-13 2 -5 4 17 4 22 1 32 -1 23 -4z m-4097 -840 c40 -18 76 -43 90 -62 l23 -31
1773 0 c996 0 1772 -4 1769 -9 -3 -4 -22 -7 -42 -4 -20 2 -33 0 -30 -6 4 -5
-142 -9 -367 -11 -204 0 -516 -3 -692 -6 -176 -2 -787 -4 -1357 -4 l-1037 -1
-18 -37 c-23 -47 -70 -78 -141 -93 -115 -23 -247 8 -318 76 -51 49 -63 85 -41
131 32 66 107 96 232 91 75 -3 101 -9 156 -34z m3749 -111 c0 -13 -2 -14 -9
-4 -5 8 -17 11 -33 7 -14 -4 -28 -2 -32 3 -3 6 11 10 34 10 31 1 40 -3 40 -16z
m50 8 c0 -5 -4 -10 -10 -10 -5 0 -10 5 -10 10 0 6 5 10 10 10 6 0 10 -4 10
-10z m213 -807 c-13 -2 -35 -2 -50 0 -16 2 -5 4 22 4 28 0 40 -2 28 -4z m125
0 c-16 -2 -40 -2 -55 0 -16 2 -3 4 27 4 30 0 43 -2 28 -4z m129 0 c-20 -2 -52
-2 -70 0 -17 2 0 4 38 4 39 0 53 -2 32 -4z m186 0 c-7 -2 -21 -2 -30 0 -10 3
-4 5 12 5 17 0 24 -2 18 -5z m-910 -10 c-13 -2 -33 -2 -45 0 -13 2 -3 4 22 4
25 0 35 -2 23 -4z m185 -20 c-10 -2 -26 -2 -35 0 -10 3 -2 5 17 5 19 0 27 -2
18 -5z m-4703 -334 c70 -18 124 -48 165 -90 l40 -41 1885 4 c1658 4 1885 3
1880 -10 -4 -12 -3 -12 9 -3 17 15 43 5 51 -20 4 -11 11 -17 16 -14 5 4 9 1 9
-5 0 -7 8 -9 19 -5 11 3 25 -1 34 -9 8 -8 17 -13 20 -10 6 6 77 -35 77 -45 0
-4 9 -7 20 -8 19 -2 134 -62 118 -63 -3 0 -32 13 -65 29 -44 23 -59 26 -61 16
-3 -11 -15 -8 -53 13 -27 15 -49 32 -49 39 0 6 -5 15 -12 19 -8 5 -9 2 -5 -10
6 -15 -1 -13 -40 9 -27 15 -52 33 -58 39 -5 6 -23 11 -40 11 -16 -1 -820 -5
-1785 -9 -1540 -8 -1907 -10 -1957 -15 -7 0 -20 -17 -29 -36 -85 -179 -524
-110 -524 83 0 98 185 171 335 131z m4285 -305 c0 -8 -19 -13 -24 -6 -3 5 1 9
9 9 8 0 15 -2 15 -3z m145 -54 c3 -6 -1 -7 -9 -4 -18 7 -21 14 -7 14 6 0 13
-4 16 -10z m-6583 -151 c132 -44 189 -130 143 -218 -11 -23 -12 -31 -2 -38 6
-6 118 -70 247 -143 438 -248 1235 -701 1625 -923 189 -108 192 -110 335 -189
69 -39 130 -74 135 -78 6 -4 31 -19 58 -34 103 -57 147 -82 267 -151 69 -39
235 -134 370 -210 135 -76 349 -198 475 -270 127 -73 257 -147 290 -165 l60
-33 580 2 c319 2 577 0 574 -3 -3 -4 -56 -7 -118 -7 -62 -1 -110 -4 -107 -7 3
-3 79 -7 168 -9 89 -2 164 -6 167 -8 2 -3 -171 -5 -385 -6 -214 0 -502 -3
-641 -5 l-252 -5 -58 32 c-32 18 -78 44 -103 59 -25 15 -108 62 -185 105 -77
44 -183 103 -235 134 -52 30 -135 76 -184 103 -49 27 -187 105 -305 172 -119
68 -373 212 -566 321 -370 209 -504 285 -860 488 -258 146 -776 440 -955 540
-69 38 -186 105 -260 147 -213 122 -191 114 -268 95 -89 -23 -189 -13 -269 25
-81 38 -115 77 -120 137 -4 43 -2 52 29 86 64 74 222 100 350 56z m4156 -154
c35 -16 77 -45 97 -66 29 -33 35 -47 35 -84 0 -25 -5 -54 -12 -65 -7 -10 -10
-21 -8 -23 5 -4 322 -178 425 -232 33 -18 119 -65 190 -105 72 -40 162 -90
200 -110 39 -21 97 -53 131 -71 33 -19 106 -58 162 -88 56 -30 99 -57 97 -62
-3 -4 0 -11 6 -15 8 -4 9 -3 5 4 -9 15 -1 15 25 1 20 -10 20 -11 2 -25 -17
-14 -17 -14 4 -5 23 12 53 5 53 -11 0 -5 5 -6 10 -3 6 3 10 0 10 -8 0 -7 6
-14 13 -14 27 0 107 -45 100 -56 -5 -8 -8 -7 -11 2 -4 11 -6 11 -12 1 -12 -20
-41 -4 -33 17 6 16 5 16 -10 4 -15 -12 -17 -12 -11 4 5 13 4 16 -4 11 -7 -4
-12 -2 -12 6 0 10 -2 10 -9 -1 -7 -11 -11 -10 -20 5 -8 14 -11 15 -11 4 0 -13
-1 -13 -10 0 -5 8 -10 11 -10 7 0 -12 -93 42 -103 59 -4 8 -18 19 -30 25 -20
9 -19 8 3 -11 37 -32 21 -24 -160 76 -167 93 -208 115 -405 219 -60 32 -117
63 -125 70 -8 6 -125 71 -260 143 l-246 131 -49 -15 c-35 -11 -76 -14 -140
-11 -108 5 -183 36 -239 97 -30 34 -36 47 -36 86 0 40 5 51 36 80 49 47 111
64 214 61 68 -3 98 -9 148 -32z m1664 -180 c71 -15 140 -54 177 -101 27 -34
28 -59 3 -45 -13 7 -23 6 -30 -1 -9 -9 -12 -9 -12 0 0 7 -7 12 -15 12 -11 0
-15 -11 -15 -40 0 -35 -3 -40 -22 -40 -13 0 -29 -4 -37 -9 -12 -8 -12 -12 2
-26 21 -20 21 -31 3 -38 -18 -7 -56 3 -56 14 0 5 -5 9 -11 9 -6 0 -9 -5 -7
-12 7 -21 57 -28 93 -12 39 16 59 18 51 6 -3 -5 -30 -15 -60 -22 -81 -19 -182
-7 -257 30 -32 17 -59 33 -59 36 0 3 5 2 10 -1 16 -10 11 1 -7 16 -11 10 -14
10 -9 2 4 -7 3 -13 -2 -13 -5 0 -21 17 -36 38 -36 53 -35 101 4 146 54 61 160
80 292 51z m178 -189 c0 -19 3 -36 8 -39 4 -2 1 -2 -7 0 -8 2 -11 -2 -7 -12 8
-21 -8 -19 -29 5 -10 11 -13 20 -7 20 7 0 12 -5 12 -12 0 -9 3 -9 12 0 10 10
10 15 -1 21 -8 5 -11 16 -6 30 10 33 25 25 25 -13z m25 -6 c-4 -12 -9 -19 -12
-17 -3 3 -2 15 2 27 4 12 9 19 12 17 3 -3 2 -15 -2 -27z m-20 -91 c-3 -3 7
-11 21 -18 30 -13 37 -14 29 -2 -3 5 -1 12 4 16 6 3 8 -3 6 -13 -2 -13 11 -26
46 -46 85 -47 53 -39 -38 10 -101 54 -114 64 -85 61 11 0 19 -4 17 -8z m145
-55 c0 -7 -58 25 -65 36 -3 5 10 1 29 -11 20 -12 36 -23 36 -25z m100 -90 c0
-2 -9 0 -20 6 -11 6 -20 13 -20 16 0 2 9 0 20 -6 11 -6 20 -13 20 -16z m120
-30 c0 -2 -9 0 -20 6 -11 6 -20 13 -20 16 0 2 9 0 20 -6 11 -6 20 -13 20 -16z
m-596 -417 c16 -12 16 -14 2 -14 -9 0 -16 4 -16 7 0 4 -11 8 -25 8 -14 0 -25
-5 -25 -11 0 -6 -3 -8 -6 -4 -11 11 7 27 30 27 12 0 30 -6 40 -13z m3 -30 c7
0 9 -5 6 -10 -3 -5 0 -7 8 -5 8 3 13 11 11 17 -2 9 3 9 18 1 25 -13 25 -18 3
-16 -10 0 -17 -5 -15 -12 2 -13 -32 2 -68 29 -12 9 -11 10 5 4 11 -4 25 -8 32
-8z m173 -73 c0 -2 -9 0 -20 6 -11 6 -20 13 -20 16 0 2 9 0 20 -6 11 -6 20
-13 20 -16z m-602 -1171 c-10 -2 -26 -2 -35 0 -10 3 -2 5 17 5 19 0 27 -2 18
-5z m-5641 -448 c76 -22 144 -72 170 -124 24 -46 22 -82 -4 -134 -8 -16 -13
-30 -11 -32 2 -2 111 -68 243 -147 132 -79 713 -428 1292 -776 l1052 -632 542
0 c298 -1 539 -3 536 -7 -4 -3 -48 -5 -98 -5 -68 1 -95 -2 -106 -13 -17 -18
-39 -19 -49 -4 -4 8 1 9 17 4 14 -4 20 -4 16 1 -5 5 -27 9 -48 10 -38 0 -39
-1 -17 -12 20 -11 11 -13 -62 -13 -47 1 -234 -3 -416 -7 l-330 -7 -190 115
c-104 63 -380 229 -614 368 -560 334 -1071 639 -1467 876 -177 106 -330 197
-341 203 -15 8 -33 5 -75 -9 -137 -48 -323 0 -397 102 -90 124 32 257 236 258
39 0 93 -7 121 -15z m5476 -292 c-7 -2 -21 -2 -30 0 -10 3 -4 5 12 5 17 0 24
-2 18 -5z m-1093 -710 c-19 -3 -39 -9 -44 -14 -13 -12 -29 -12 -21 0 3 6 -12
12 -32 14 -21 2 0 4 47 4 47 0 69 -2 50 -4z m-513 -849 c-3 -3 -12 -4 -19 -1
-8 3 -5 6 6 6 11 1 17 -2 13 -5z m-182 -24 c-3 -5 -13 -10 -21 -10 -8 0 -12 5
-9 10 3 6 13 10 21 10 8 0 12 -4 9 -10z m73 -7 c-10 -2 -28 -2 -40 0 -13 2 -5
4 17 4 22 1 32 -1 23 -4z m-501 -849 c-3 -3 -12 -4 -19 -1 -8 3 -5 6 6 6 11 1
17 -2 13 -5z m-154 -31 c-7 -2 -19 -2 -25 0 -7 3 -2 5 12 5 14 0 19 -2 13 -5z
m220 0 c-7 -2 -19 -2 -25 0 -7 3 -2 5 12 5 14 0 19 -2 13 -5z m130 0 c-7 -2
-21 -2 -30 0 -10 3 -4 5 12 5 17 0 24 -2 18 -5z m140 0 c-7 -2 -21 -2 -30 0
-10 3 -4 5 12 5 17 0 24 -2 18 -5z m-1365 -688 c22 -6 22 -8 6 -19 -12 -9 -14
-15 -6 -20 7 -4 12 -12 12 -19 0 -6 -7 -4 -17 5 -13 14 -14 20 -3 32 10 13 10
16 -4 16 -9 0 -16 -7 -16 -15 0 -13 -2 -14 -14 -3 -12 11 -11 14 3 20 10 4 11
7 3 7 -7 1 -10 6 -6 12 4 7 9 7 13 1 3 -5 16 -13 29 -17z m52 -75 c8 -5 11
-10 5 -10 -5 0 -17 5 -25 10 -8 5 -10 10 -5 10 6 0 17 -5 25 -10z m74 -59 c-2
-3 -12 3 -22 13 -16 17 -16 18 5 5 12 -7 20 -15 17 -18z m136 -27 c0 -2 -9 0
-20 6 -11 6 -20 13 -20 16 0 2 9 0 20 -6 11 -6 20 -13 20 -16z m-943 -471 c0
-9 -4 -10 -14 -2 -7 6 -13 12 -13 14 0 1 6 2 13 2 8 0 14 -6 14 -14z m118 -63
c3 -5 1 -10 -4 -10 -6 0 -11 5 -11 10 0 6 2 10 4 10 3 0 8 -4 11 -10z m42 -25
c0 -8 -4 -15 -9 -15 -10 0 -11 14 -1 23 9 10 10 9 10 -8z m-878 -481 c4 3 8
-1 8 -8 0 -10 -12 -6 -39 11 -21 14 -38 32 -38 40 0 9 12 3 31 -16 17 -17 34
-29 38 -27z m101 -19 c7 -9 8 -15 2 -15 -5 0 -12 7 -16 15 -3 8 -4 15 -2 15 2
0 9 -7 16 -15z m125 -75 c3 -5 1 -10 -4 -10 -6 0 -11 5 -11 10 0 6 2 10 4 10
3 0 8 -4 11 -10z m5 -62 c0 -6 -6 -5 -15 2 -8 7 -15 14 -15 16 0 2 7 1 15 -2
8 -4 15 -11 15 -16z m215 -78 c3 -6 -1 -7 -9 -4 -18 7 -21 14 -7 14 6 0 13 -4
16 -10z m-1557 -486 c5 3 15 -1 21 -8 7 -8 8 -16 4 -19 -11 -6 -64 28 -56 37
4 3 10 1 14 -5 4 -6 11 -9 17 -5z m129 -40 l28 -26 -30 20 c-16 10 -37 22 -45
25 -12 4 -12 6 2 6 9 1 30 -11 45 -25z m94 -61 c13 -16 12 -17 -3 -4 -17 13
-22 21 -14 21 2 0 10 -8 17 -17z m-61 -10 c31 -22 70 -59 50 -48 -32 19 -92
65 -84 65 5 0 21 -8 34 -17z m161 -54 l24 -20 -30 17 c-39 24 -40 24 -28 24 6
0 21 -9 34 -21z"/>
<path d="M7155 15898 c-4 -10 -11 -15 -16 -12 -5 3 -9 0 -9 -5 0 -13 10 -14
29 -2 7 5 11 15 8 22 -3 11 -6 10 -12 -3z"/>
<path d="M7010 15800 c0 -5 -7 -10 -15 -10 -8 0 -15 -4 -15 -10 0 -6 10 -5 25
2 25 11 34 28 15 28 -5 0 -10 -4 -10 -10z"/>
<path d="M6922 15744 c-7 -8 -8 -14 -3 -14 10 0 25 19 20 25 -2 1 -10 -3 -17
-11z"/>
<path d="M7398 13863 c6 -2 18 -2 25 0 6 3 1 5 -13 5 -14 0 -19 -2 -12 -5z"/>
<path d="M7438 12853 c7 -3 16 -2 19 1 4 3 -2 6 -13 5 -11 0 -14 -3 -6 -6z"/>
<path d="M7493 12853 c9 -2 25 -2 35 0 9 3 1 5 -18 5 -19 0 -27 -2 -17 -5z"/>
<path d="M7573 12233 c9 -2 23 -2 30 0 6 3 -1 5 -18 5 -16 0 -22 -2 -12 -5z"/>
<path d="M6970 8899 c0 -5 5 -7 10 -4 6 3 10 8 10 11 0 2 -4 4 -10 4 -5 0 -10
-5 -10 -11z"/>
<path d="M7020 8881 c0 -5 7 -12 16 -15 24 -9 28 -7 14 9 -14 17 -30 20 -30 6z"/>
<path d="M7072 8848 c2 -6 10 -14 16 -16 7 -2 10 2 6 12 -7 18 -28 22 -22 4z"/>
<path d="M5625 6120 c-3 -5 3 -10 15 -10 12 0 18 5 15 10 -3 6 -10 10 -15 10
-5 0 -12 -4 -15 -10z"/>
<path d="M6395 7410 c-3 -5 -2 -10 4 -10 5 0 13 5 16 10 3 6 2 10 -4 10 -5 0
-13 -4 -16 -10z"/>
<path d="M6654 8190 c3 -8 9 -22 12 -31 3 -9 17 -22 30 -28 20 -9 24 -8 24 5
0 10 -6 14 -15 10 -8 -3 -15 -1 -15 5 0 5 -10 20 -21 32 -12 12 -19 15 -15 7z"/>
<path d="M6731 8134 c0 -11 3 -14 6 -6 3 7 2 16 -1 19 -3 4 -6 -2 -5 -13z"/>
<path d="M6480 7970 c-13 -8 -12 -10 3 -10 9 0 17 5 17 10 0 12 -1 12 -20 0z"/>
<path d="M7228 9443 c7 -3 16 -2 19 1 4 3 -2 6 -13 5 -11 0 -14 -3 -6 -6z"/>
<path d="M3097 2913 c-4 -3 -7 -11 -7 -17 0 -7 3 -7 8 0 4 7 18 14 32 17 l25
4 -26 2 c-14 0 -29 -2 -32 -6z"/>
<path d="M3280 2910 c0 -6 3 -10 8 -11 45 -7 80 -5 95 6 16 11 10 13 -42 14
-34 0 -61 -4 -61 -9z"/>
<path d="M3415 2910 c-3 -6 1 -7 9 -4 18 7 21 14 7 14 -6 0 -13 -4 -16 -10z"/>
<path d="M3210 2900 c0 -5 5 -10 11 -10 5 0 7 5 4 10 -3 6 -8 10 -11 10 -2 0
-4 -4 -4 -10z"/>
<path d="M2386 2351 c-3 -4 6 -8 20 -9 13 -1 24 0 24 2 0 7 -40 14 -44 7z"/>
<path d="M2486 2288 c3 -5 10 -6 15 -3 13 9 11 12 -6 12 -8 0 -12 -4 -9 -9z"/>
<path d="M2505 2270 c-3 -6 1 -7 9 -4 18 7 21 14 7 14 -6 0 -13 -4 -16 -10z"/>
<path d="M2544 2259 c-3 -6 -1 -16 5 -22 9 -9 10 -7 5 7 -6 15 -4 17 6 11 9
-5 11 -4 6 3 -9 15 -13 15 -22 1z"/>
<path d="M2588 2233 c7 -3 16 -2 19 1 4 3 -2 6 -13 5 -11 0 -14 -3 -6 -6z"/>
<path d="M1740 1766 c0 -2 7 -7 16 -10 8 -3 12 -2 9 4 -6 10 -25 14 -25 6z"/>
<path d="M1826 1707 c3 -10 9 -15 12 -12 3 3 0 11 -7 18 -10 9 -11 8 -5 -6z"/>
<path d="M1900 1655 c-7 -8 -11 -15 -9 -16 31 -6 40 -6 44 1 3 4 -1 13 -9 19
-10 9 -16 8 -26 -4z"/>
<path d="M947 1219 c7 -7 15 -10 18 -7 3 3 -2 9 -12 12 -14 6 -15 5 -6 -5z"/>
<path d="M1115 1123 c11 -2 25 -13 30 -25 11 -24 57 -34 48 -11 -6 14 -19 17
-26 6 -2 -5 -2 -2 -1 4 4 15 -27 34 -53 32 -15 -1 -15 -2 2 -6z"/>
<path d="M28 403 c6 -2 9 -10 6 -15 -4 -7 -2 -8 5 -4 13 9 5 26 -12 25 -9 0
-8 -2 1 -6z"/>
<path d="M46 372 c-2 -4 0 -14 6 -22 8 -12 9 -11 4 4 -5 14 -2 17 9 12 9 -3
13 -2 10 4 -7 12 -22 13 -29 2z"/>
</g>
</svg>
