<?xml version="1.0" encoding="UTF-8" ?>
<!DOCTYPE svg PUBLIC "-//W3C//DTD SVG 1.1//EN" "http://www.w3.org/Graphics/SVG/1.1/DTD/svg11.dtd">
<svg width="388pt" height="388pt" viewBox="0 0 388 388" version="1.1" xmlns="http://www.w3.org/2000/svg">
<g id="#0000001b">
<path fill="#000000" opacity="0.11" d=" M 191.03 17.19 C 200.21 14.88 210.06 17.35 218.07 22.09 C 219.30 22.60 219.67 23.91 220.25 24.98 C 219.62 24.61 218.37 23.85 217.75 23.48 C 216.05 22.62 214.27 21.93 212.50 21.20 C 209.61 20.68 206.74 19.95 203.78 19.95 C 196.19 21.08 188.44 24.38 184.07 31.00 C 181.23 34.74 180.08 39.35 179.04 43.84 C 177.54 44.04 176.04 44.22 174.56 44.48 C 168.62 45.55 162.76 47.05 157.00 48.87 C 155.51 49.33 154.04 49.82 152.56 50.28 C 143.98 53.36 135.73 57.29 127.82 61.79 C 121.00 65.86 114.45 70.40 108.34 75.48 C 103.31 80.00 98.08 84.36 93.71 89.55 C 81.67 102.45 72.19 117.70 65.70 134.09 C 62.08 142.99 59.91 152.36 57.64 161.67 C 48.02 162.03 39.19 168.71 35.70 177.60 C 30.89 188.80 35.45 202.93 45.90 209.22 C 45.12 210.16 44.39 211.14 43.70 212.15 C 43.41 214.54 45.12 216.58 46.35 218.47 C 49.04 221.88 51.95 225.52 56.05 227.25 C 57.99 227.96 59.28 226.08 60.67 225.13 C 62.69 232.79 65.40 240.26 68.69 247.46 C 74.85 261.03 83.24 273.52 93.17 284.61 C 98.65 290.28 104.17 295.95 110.44 300.76 C 115.91 305.28 121.85 309.21 127.95 312.84 C 134.35 316.48 140.95 319.83 147.87 322.41 C 153.75 324.86 159.86 326.71 166.04 328.26 C 166.32 328.33 166.90 328.47 167.19 328.54 C 166.34 330.36 164.84 332.51 166.44 334.41 C 169.73 339.24 174.43 343.45 179.99 345.44 C 181.89 344.70 181.84 342.43 182.19 340.78 C 183.04 342.00 183.86 343.25 184.76 344.45 C 187.51 348.05 191.27 350.83 195.43 352.60 C 200.52 354.63 206.15 354.28 211.47 353.67 C 216.86 352.07 222.03 349.12 225.45 344.58 C 227.33 342.14 228.70 339.37 229.87 336.54 C 230.35 334.13 230.90 331.74 231.29 329.32 C 234.56 328.71 237.80 327.89 240.99 326.95 C 245.56 325.60 250.07 324.10 254.49 322.32 C 256.85 321.42 259.17 320.39 261.46 319.31 C 264.15 318.01 266.82 316.68 269.47 315.30 C 274.11 312.84 278.57 310.06 282.91 307.10 C 288.99 302.90 294.72 298.22 300.22 293.28 C 305.74 288.10 310.73 282.42 315.42 276.48 C 319.40 271.40 323.04 266.03 326.30 260.46 C 327.03 259.18 327.76 257.91 328.48 256.64 C 331.12 252.08 333.24 247.26 335.29 242.42 C 336.34 239.79 337.35 237.14 338.30 234.47 C 340.37 228.28 342.22 222.00 343.33 215.55 C 343.53 214.96 343.94 213.77 344.14 213.17 C 354.48 212.69 363.42 205.07 366.80 195.49 C 368.45 190.28 368.42 184.69 366.83 179.47 C 366.07 177.71 365.32 175.93 364.45 174.22 C 365.58 174.43 366.42 175.02 366.97 175.98 C 371.66 184.04 373.08 193.91 370.90 202.97 C 369.38 210.85 364.26 217.29 359.20 223.25 C 357.27 225.31 354.63 226.59 352.89 228.85 C 349.65 233.03 345.85 236.96 344.09 242.06 C 339.30 254.46 334.53 267.01 326.93 278.02 C 316.31 295.18 302.21 310.15 285.80 321.88 C 272.89 331.92 257.48 337.77 242.97 344.99 C 233.68 349.27 228.53 358.67 220.63 364.74 C 210.12 372.33 195.64 374.33 183.64 369.23 C 178.64 367.33 174.46 363.96 170.51 360.45 C 165.03 356.30 161.11 350.22 154.72 347.29 C 144.87 342.60 134.29 339.59 124.73 334.29 C 111.99 328.42 100.02 320.82 89.67 311.35 C 84.48 307.23 79.67 302.59 75.55 297.40 C 66.30 287.25 58.52 275.71 52.66 263.28 C 47.25 253.42 45.12 241.90 38.21 232.86 C 32.28 226.12 24.67 220.64 20.67 212.37 C 13.88 200.42 14.54 184.67 22.34 173.36 C 26.71 166.56 33.53 161.89 38.60 155.67 C 42.22 151.08 44.03 145.45 46.19 140.11 C 54.28 118.83 66.69 99.04 83.22 83.30 C 92.48 73.91 103.37 66.30 114.64 59.52 C 125.27 53.18 136.83 48.67 148.39 44.34 C 155.53 41.89 161.75 37.28 166.80 31.74 C 173.37 24.90 181.43 18.73 191.03 17.19 Z" />
<path fill="#000000" opacity="0.11" d=" M 186.35 227.44 C 189.14 221.45 192.21 215.60 195.00 209.61 C 199.80 214.28 205.04 218.46 209.96 223.01 C 212.44 220.66 214.90 218.29 217.25 215.81 L 217.31 216.17 C 220.38 220.31 225.95 220.60 230.59 219.60 C 235.12 218.59 239.75 219.25 244.20 220.34 C 240.50 224.33 236.00 227.53 231.16 229.99 C 229.95 230.59 228.74 231.18 227.54 231.78 C 225.00 232.64 222.47 233.56 219.86 234.21 C 216.28 235.17 212.54 235.06 208.88 235.42 C 205.40 235.37 201.92 235.10 198.49 234.58 C 194.58 233.64 190.67 232.56 187.10 230.67 C 186.68 230.45 185.86 230.01 185.45 229.78 C 185.67 229.20 186.13 228.03 186.35 227.44 Z" />
</g>
<g id="#ecc84dfe">
<path fill="#ecc84d" opacity="1.00" d=" M 184.07 31.00 C 188.44 24.38 196.19 21.08 203.78 19.95 C 203.76 22.92 203.75 25.90 203.77 28.88 C 201.95 29.16 200.18 29.66 198.40 30.09 C 193.37 32.69 189.09 37.19 188.07 42.91 C 187.85 45.31 187.94 47.73 188.14 50.13 C 189.33 53.25 190.82 56.31 193.10 58.80 C 193.00 62.20 192.96 65.61 192.96 69.01 C 186.28 65.50 181.68 58.97 179.68 51.78 C 178.33 51.98 176.98 52.17 175.64 52.42 C 175.28 49.77 174.92 47.12 174.56 44.48 C 176.04 44.22 177.54 44.04 179.04 43.84 C 180.08 39.35 181.23 34.74 184.07 31.00 Z" />
</g>
<g id="#f2d664ff">
<path fill="#f2d664" opacity="1.00" d=" M 203.78 19.95 C 206.74 19.95 209.61 20.68 212.50 21.20 C 214.27 21.93 216.05 22.62 217.75 23.48 C 217.18 26.68 216.77 29.92 216.75 33.18 C 213.00 30.42 208.53 28.42 203.77 28.88 C 203.75 25.90 203.76 22.92 203.78 19.95 Z" />
</g>
<g id="#f5de70ff">
<path fill="#f5de70" opacity="1.00" d=" M 216.75 33.18 C 216.77 29.92 217.18 26.68 217.75 23.48 C 218.37 23.85 219.62 24.61 220.25 24.98 C 223.53 27.62 226.48 30.75 228.38 34.56 C 229.41 36.81 230.12 39.18 230.70 41.59 C 229.84 45.32 229.95 49.14 230.13 52.94 C 229.56 54.46 228.97 55.98 228.39 57.50 C 226.07 62.00 222.36 65.59 218.22 68.42 C 218.20 64.88 217.96 61.34 217.84 57.80 C 222.09 53.46 222.58 47.19 221.98 41.46 C 220.59 38.50 219.08 35.52 216.75 33.18 Z" />
</g>
<g id="#0000002d">
<path fill="#000000" opacity="0.18" d=" M 198.40 30.09 C 200.18 29.66 201.95 29.16 203.77 28.88 C 208.53 28.42 213.00 30.42 216.75 33.18 C 219.08 35.52 220.59 38.50 221.98 41.46 C 222.58 47.19 222.09 53.46 217.84 57.80 C 214.64 61.06 210.33 63.52 205.62 63.12 C 204.04 63.11 202.45 63.08 200.87 63.02 C 204.20 61.20 207.06 58.31 207.54 54.38 C 209.40 47.61 202.15 40.04 195.33 42.34 C 191.74 43.51 189.62 46.87 188.14 50.13 C 187.94 47.73 187.85 45.31 188.07 42.91 C 189.09 37.19 193.37 32.69 198.40 30.09 Z" />
<path fill="#000000" opacity="0.18" d=" M 51.34 172.16 C 56.01 169.52 61.68 169.26 66.65 171.22 C 70.55 173.26 73.80 176.48 75.80 180.41 C 77.90 185.63 77.47 191.76 74.31 196.47 C 72.37 200.32 68.33 202.21 64.62 203.93 C 61.40 204.17 58.16 204.29 54.96 203.83 C 58.83 202.50 63.09 200.15 63.66 195.63 C 64.95 188.57 56.99 183.39 50.62 184.46 C 47.49 184.80 45.08 186.95 42.81 188.94 C 42.92 186.75 43.00 184.56 43.07 182.38 C 44.94 178.34 47.26 174.31 51.34 172.16 Z" />
<path fill="#000000" opacity="0.18" d=" M 337.33 170.74 C 340.98 169.35 344.99 169.89 348.62 171.09 C 351.05 172.57 353.55 174.05 355.39 176.27 C 358.97 180.58 359.53 186.14 358.96 191.52 C 357.23 196.31 354.02 200.35 349.59 202.90 C 346.51 204.03 343.23 204.25 339.98 204.08 C 339.45 204.05 338.39 204.00 337.86 203.98 C 341.33 202.34 344.91 199.84 345.85 195.89 C 346.32 191.80 344.33 187.24 340.38 185.62 C 334.94 183.67 328.43 185.30 324.91 189.99 C 324.81 186.74 325.02 183.47 326.08 180.38 C 327.34 178.38 328.67 176.43 330.27 174.69 C 331.92 173.39 333.66 172.20 335.44 171.08 C 335.91 170.99 336.85 170.83 337.33 170.74 Z" />
</g>
<g id="#0000001e">
<path fill="#000000" opacity="0.12" d=" M 195.33 42.34 C 202.15 40.04 209.40 47.61 207.54 54.38 C 207.06 58.31 204.20 61.20 200.87 63.02 C 198.07 62.04 195.43 60.64 193.10 58.80 C 190.82 56.31 189.33 53.25 188.14 50.13 C 189.62 46.87 191.74 43.51 195.33 42.34 Z" />
<path fill="#000000" opacity="0.12" d=" M 50.62 184.46 C 56.99 183.39 64.95 188.57 63.66 195.63 C 63.09 200.15 58.83 202.50 54.96 203.83 C 54.09 203.50 53.22 203.17 52.36 202.82 C 48.96 200.87 46.12 198.05 44.16 194.66 C 43.48 192.81 42.99 190.90 42.81 188.94 C 45.08 186.95 47.49 184.80 50.62 184.46 Z" />
<path fill="#000000" opacity="0.12" d=" M 324.91 189.99 C 328.43 185.30 334.94 183.67 340.38 185.62 C 344.33 187.24 346.32 191.80 345.85 195.89 C 344.91 199.84 341.33 202.34 337.86 203.98 C 335.11 203.03 332.51 201.67 330.23 199.87 C 327.58 197.13 325.95 193.61 324.91 189.99 Z" />
<path fill="#000000" opacity="0.12" d=" M 188.57 333.35 C 189.63 327.94 195.60 323.74 200.95 325.97 C 205.69 327.27 207.93 332.41 208.03 336.95 C 207.94 340.57 205.40 343.34 202.91 345.68 C 201.78 345.37 200.65 345.06 199.52 344.76 C 198.88 344.50 197.60 343.97 196.96 343.70 C 193.12 341.28 189.95 337.74 188.57 333.35 Z" />
</g>
<g id="#f8e57bff">
<path fill="#f8e57b" opacity="1.00" d=" M 230.13 52.94 C 229.95 49.14 229.84 45.32 230.70 41.59 C 230.79 42.42 230.98 44.08 231.08 44.91 C 235.30 46.34 239.69 47.22 244.01 48.33 L 244.01 48.83 C 244.05 51.61 244.06 54.40 244.24 57.18 C 243.57 56.95 242.21 56.50 241.54 56.27 C 238.01 55.24 234.46 54.28 230.86 53.50 L 230.13 52.94 Z" />
</g>
<g id="#dcb338f2">
<path fill="#dcb338" opacity="0.95" d=" M 157.00 48.87 C 162.76 47.05 168.62 45.55 174.56 44.48 C 174.92 47.12 175.28 49.77 175.64 52.42 C 172.17 53.07 168.74 53.92 165.32 54.79 C 162.53 55.53 159.76 56.36 157.03 57.28 C 156.96 54.48 156.96 51.67 157.00 48.87 Z" />
<path fill="#dcb338" opacity="0.95" d=" M 184.91 114.94 C 185.78 114.70 186.65 114.47 187.53 114.23 C 188.51 116.02 189.49 117.80 190.50 119.57 C 189.82 125.78 189.99 132.03 190.29 138.26 C 188.54 138.86 186.83 139.57 185.15 140.34 C 184.29 131.90 184.77 123.40 184.91 114.94 Z" />
</g>
<g id="#ca9e21e4">
<path fill="#ca9e21" opacity="0.89" d=" M 152.56 50.28 C 154.04 49.82 155.51 49.33 157.00 48.87 C 156.96 51.67 156.96 54.48 157.03 57.28 C 146.88 60.66 137.17 65.33 128.06 70.93 C 127.96 67.89 127.88 64.84 127.82 61.79 C 135.73 57.29 143.98 53.36 152.56 50.28 Z" />
</g>
<g id="#fdf08bff">
<path fill="#fdf08b" opacity="1.00" d=" M 244.01 48.83 C 247.71 49.35 251.08 51.06 254.58 52.27 C 256.93 53.22 259.26 54.24 261.60 55.24 C 262.10 55.51 263.11 56.05 263.61 56.32 C 267.65 58.29 271.71 60.25 275.48 62.73 C 277.00 63.59 278.49 64.52 280.04 65.34 L 280.04 65.69 C 280.04 68.89 279.92 72.09 279.72 75.28 C 276.73 73.18 273.63 71.22 270.54 69.27 C 264.74 65.88 258.74 62.89 252.56 60.27 C 249.80 59.20 247.01 58.20 244.24 57.18 C 244.06 54.40 244.05 51.61 244.01 48.83 Z" />
<path fill="#fdf08b" opacity="1.00" d=" M 247.75 216.65 C 249.28 217.94 250.79 219.28 252.22 220.70 C 252.06 225.28 251.89 229.87 251.55 234.45 C 250.35 233.30 249.16 232.16 247.96 231.02 C 244.46 234.02 240.67 236.66 236.57 238.76 C 236.08 239.01 235.08 239.51 234.58 239.75 C 233.45 240.26 232.33 240.79 231.19 241.27 C 231.06 237.51 231.06 233.75 231.16 229.99 C 236.00 227.53 240.50 224.33 244.20 220.34 C 245.39 219.12 246.57 217.88 247.75 216.65 Z" />
</g>
<g id="#00000036">
<path fill="#000000" opacity="0.21" d=" M 175.64 52.42 C 176.98 52.17 178.33 51.98 179.68 51.78 C 181.68 58.97 186.28 65.50 192.96 69.01 C 196.68 70.80 200.73 71.99 204.87 72.13 C 209.38 72.11 213.69 70.60 217.76 68.78 L 218.22 68.42 C 222.36 65.59 226.07 62.00 228.39 57.50 C 228.97 55.98 229.56 54.46 230.13 52.94 L 230.86 53.50 C 232.05 55.67 234.35 57.94 233.73 60.60 C 229.63 64.49 223.73 65.79 219.73 69.80 C 217.68 72.00 218.17 75.25 217.80 78.00 C 213.87 78.00 209.93 78.00 206.00 78.01 C 205.98 82.00 205.97 85.98 206.01 89.97 C 205.46 89.97 204.37 89.97 203.83 89.97 C 202.59 89.97 201.36 89.97 200.13 89.97 C 200.14 85.97 200.12 81.98 200.11 77.98 C 195.81 77.99 191.51 78.05 187.20 78.02 C 185.43 78.01 183.66 78.00 181.89 77.99 C 181.40 77.99 180.41 77.98 179.91 77.98 C 179.69 74.99 180.01 71.84 178.90 69.00 C 176.77 65.49 172.63 64.06 169.66 61.40 C 167.51 59.74 166.46 57.16 165.32 54.79 C 168.74 53.92 172.17 53.07 175.64 52.42 Z" />
<path fill="#000000" opacity="0.21" d=" M 167.19 328.54 C 169.85 329.14 172.53 329.70 175.22 330.18 C 176.54 330.44 177.85 330.75 179.16 331.05 C 179.83 334.39 180.85 337.64 182.19 340.78 C 181.84 342.43 181.89 344.70 179.99 345.44 C 174.43 343.45 169.73 339.24 166.44 334.41 C 164.84 332.51 166.34 330.36 167.19 328.54 Z" />
</g>
<g id="#00000026">
<path fill="#000000" opacity="0.15" d=" M 230.86 53.50 C 234.46 54.28 238.01 55.24 241.54 56.27 C 242.21 56.50 243.57 56.95 244.24 57.18 C 247.01 58.20 249.80 59.20 252.56 60.27 C 258.74 62.89 264.74 65.88 270.54 69.27 C 273.63 71.22 276.73 73.18 279.72 75.28 C 285.43 79.20 290.53 83.88 295.77 88.39 C 301.22 93.69 306.09 99.57 310.81 105.52 C 315.62 112.17 319.95 119.16 323.76 126.43 C 324.68 128.45 325.64 130.46 326.53 132.49 C 326.92 133.48 327.31 134.47 327.72 135.45 C 328.41 137.12 329.07 138.79 329.73 140.47 C 330.41 142.48 331.08 144.49 331.76 146.50 C 333.27 151.57 334.70 156.67 335.52 161.91 C 333.70 162.65 331.87 163.36 330.10 164.19 C 323.85 167.21 319.42 172.99 317.16 179.45 C 315.10 185.75 315.90 192.53 318.61 198.51 C 321.04 203.05 324.68 207.02 329.16 209.61 L 329.13 209.78 C 331.18 210.71 333.27 211.56 335.37 212.39 C 334.07 221.75 330.95 230.76 327.48 239.51 C 326.78 241.17 326.04 242.82 325.31 244.46 C 324.28 246.45 323.28 248.46 322.31 250.48 C 320.82 253.19 319.29 255.88 317.71 258.55 C 316.61 260.20 315.54 261.87 314.48 263.55 C 309.86 270.18 304.84 276.57 299.20 282.35 C 294.19 287.63 288.65 292.34 282.88 296.75 C 278.02 300.42 272.88 303.71 267.61 306.76 C 263.30 309.09 258.92 311.27 254.46 313.28 C 252.47 314.11 250.47 314.89 248.48 315.72 C 247.51 316.04 246.54 316.38 245.58 316.74 C 244.08 317.23 242.59 317.74 241.09 318.21 C 240.69 318.33 239.89 318.57 239.49 318.70 C 236.42 319.57 233.31 320.34 230.24 321.19 C 228.92 318.09 227.48 315.02 225.44 312.32 C 222.10 307.84 217.05 304.95 211.79 303.30 L 212.04 303.09 C 214.83 301.01 217.69 298.94 219.70 296.04 L 220.20 296.04 C 224.78 296.02 229.37 295.98 233.95 296.01 C 232.94 301.01 228.32 304.63 228.18 309.88 C 228.75 313.51 232.35 316.17 235.97 316.08 C 242.51 316.11 248.63 313.34 254.34 310.40 C 265.92 304.52 276.23 296.48 285.81 287.79 C 294.90 278.63 302.61 268.15 308.95 256.92 C 313.57 248.61 318.14 239.62 318.10 229.89 C 317.16 223.30 313.31 217.60 310.07 211.93 C 305.06 203.81 303.44 193.51 306.48 184.38 C 309.20 175.09 317.13 167.93 318.07 158.04 C 318.46 150.62 314.81 143.83 311.73 137.32 C 305.85 126.29 299.60 115.22 290.88 106.14 C 288.13 102.57 284.94 99.39 281.34 96.68 C 271.08 87.44 259.27 79.95 246.64 74.39 C 242.14 72.75 236.91 71.13 232.31 73.31 C 230.18 73.98 229.54 76.27 228.54 77.99 C 225.67 78.01 222.80 78.02 219.93 78.01 C 219.40 78.00 218.33 78.00 217.80 78.00 C 218.17 75.25 217.68 72.00 219.73 69.80 C 223.73 65.79 229.63 64.49 233.73 60.60 C 234.35 57.94 232.05 55.67 230.86 53.50 Z" />
</g>
<g id="#0000001c">
<path fill="#000000" opacity="0.11" d=" M 157.03 57.28 C 159.76 56.36 162.53 55.53 165.32 54.79 C 166.46 57.16 167.51 59.74 169.66 61.40 C 172.63 64.06 176.77 65.49 178.90 69.00 C 180.01 71.84 179.69 74.99 179.91 77.98 C 177.39 77.97 174.87 78.01 172.35 78.05 C 172.23 84.25 172.65 90.48 172.14 96.66 C 169.23 98.77 165.73 99.84 162.63 101.64 C 157.99 104.20 153.54 107.11 149.39 110.41 C 143.43 115.12 138.00 120.45 133.35 126.47 C 132.43 127.66 131.51 128.86 130.57 130.04 C 126.48 132.13 124.15 136.18 121.79 139.91 C 113.60 153.60 107.62 168.93 106.46 184.95 C 105.55 189.64 106.14 194.38 106.72 199.06 C 107.98 219.77 117.11 239.66 131.14 254.82 C 134.32 258.04 137.96 260.77 141.57 263.47 C 146.70 267.32 153.14 269.57 157.10 274.85 C 162.09 280.85 163.27 288.79 166.00 295.87 C 168.20 301.59 173.62 305.15 176.43 310.47 C 177.97 314.43 176.03 318.47 173.59 321.57 C 170.96 321.02 168.35 320.40 165.76 319.74 C 159.85 318.14 154.01 316.25 148.35 313.90 C 147.05 313.32 145.76 312.71 144.47 312.10 C 147.63 312.46 150.78 312.94 153.96 313.03 C 156.45 313.10 159.27 310.85 158.79 308.19 C 158.32 304.76 156.88 301.58 155.73 298.34 C 153.70 292.87 151.29 287.17 146.62 283.42 C 140.02 277.99 132.58 273.55 126.72 267.25 C 113.82 255.13 105.11 239.11 99.64 222.42 C 97.10 215.10 96.17 206.91 91.28 200.65 C 87.52 204.32 85.27 209.11 82.45 213.46 C 79.66 218.10 76.11 222.54 75.01 227.96 C 74.26 233.27 75.50 238.68 77.38 243.63 C 78.73 247.27 81.62 250.45 81.48 254.52 C 80.88 253.50 80.29 252.49 79.70 251.47 C 78.89 249.84 78.07 248.21 77.23 246.59 C 72.06 235.74 68.56 224.21 66.06 212.48 C 72.16 210.58 77.88 206.97 81.35 201.49 C 85.41 195.37 86.63 187.59 84.91 180.49 C 87.00 183.79 89.09 187.11 91.58 190.13 C 94.78 183.80 96.14 176.79 98.02 170.00 C 103.23 147.69 115.10 126.52 133.09 112.06 C 140.05 106.09 148.90 101.87 153.56 93.62 C 155.81 89.46 158.21 85.31 159.85 80.85 C 161.00 78.25 158.93 74.95 156.03 75.01 C 147.45 74.05 139.39 78.16 132.03 82.04 C 124.51 86.23 117.62 91.47 111.15 97.13 C 108.47 99.43 105.54 101.50 103.34 104.29 C 99.40 109.40 94.51 113.74 91.14 119.28 C 83.97 129.46 77.64 140.48 74.49 152.61 C 73.05 157.68 75.14 162.71 76.62 167.51 C 73.49 164.95 69.77 163.28 66.02 161.87 C 67.56 155.34 69.16 148.83 71.21 142.44 C 76.66 127.28 84.41 112.89 94.64 100.42 C 99.12 94.98 104.12 90.00 109.25 85.19 C 115.05 79.86 121.40 75.13 128.06 70.93 C 137.17 65.33 146.88 60.66 157.03 57.28 Z" />
</g>
<g id="#f2d765ff">
<path fill="#f2d765" opacity="1.00" d=" M 205.62 63.12 C 210.33 63.52 214.64 61.06 217.84 57.80 C 217.96 61.34 218.20 64.88 218.22 68.42 L 217.76 68.78 C 213.69 70.60 209.38 72.11 204.87 72.13 C 204.96 69.11 205.20 66.10 205.62 63.12 Z" />
</g>
<g id="#efd059ff">
<path fill="#efd059" opacity="1.00" d=" M 193.10 58.80 C 195.43 60.64 198.07 62.04 200.87 63.02 C 202.45 63.08 204.04 63.11 205.62 63.12 C 205.20 66.10 204.96 69.11 204.87 72.13 C 200.73 71.99 196.68 70.80 192.96 69.01 C 192.96 65.61 193.00 62.20 193.10 58.80 Z" />
</g>
<g id="#d8a822ef">
<path fill="#d8a822" opacity="0.94" d=" M 108.34 75.48 C 114.45 70.40 121.00 65.86 127.82 61.79 C 127.88 64.84 127.96 67.89 128.06 70.93 C 121.40 75.13 115.05 79.86 109.25 85.19 C 109.15 81.93 108.85 78.69 108.34 75.48 Z" />
</g>
<g id="#feeb7dff">
<path fill="#feeb7d" opacity="1.00" d=" M 280.04 65.69 C 285.83 68.93 290.71 73.49 296.08 77.33 L 296.08 77.71 C 296.10 81.27 295.97 84.83 295.77 88.39 C 290.53 83.88 285.43 79.20 279.72 75.28 C 279.92 72.09 280.04 68.89 280.04 65.69 Z" />
<path fill="#feeb7d" opacity="1.00" d=" M 252.22 220.70 C 255.19 223.74 258.22 226.71 261.22 229.73 C 261.12 234.27 261.04 238.82 260.88 243.36 C 257.79 240.36 254.65 237.43 251.55 234.45 C 251.89 229.87 252.06 225.28 252.22 220.70 Z" />
</g>
<g id="#00000012">
<path fill="#000000" opacity="0.07" d=" M 232.31 73.31 C 236.91 71.13 242.14 72.75 246.64 74.39 C 259.27 79.95 271.08 87.44 281.34 96.68 C 284.94 99.39 288.13 102.57 290.88 106.14 C 299.60 115.22 305.85 126.29 311.73 137.32 C 314.81 143.83 318.46 150.62 318.07 158.04 C 317.13 167.93 309.20 175.09 306.48 184.38 C 303.44 193.51 305.06 203.81 310.07 211.93 C 313.31 217.60 317.16 223.30 318.10 229.89 C 318.14 239.62 313.57 248.61 308.95 256.92 C 302.61 268.15 294.90 278.63 285.81 287.79 C 276.23 296.48 265.92 304.52 254.34 310.40 C 248.63 313.34 242.51 316.11 235.97 316.08 C 232.35 316.17 228.75 313.51 228.18 309.88 C 228.32 304.63 232.94 301.01 233.95 296.01 C 233.98 295.59 234.04 294.75 234.07 294.32 C 239.93 285.49 249.94 281.09 258.56 275.53 C 265.49 271.01 272.44 264.41 272.97 255.63 C 275.28 253.15 278.39 251.26 280.03 248.26 C 273.90 241.96 267.32 236.08 261.22 229.73 C 258.22 226.71 255.19 223.74 252.22 220.70 C 250.79 219.28 249.28 217.94 247.75 216.65 C 246.57 217.88 245.39 219.12 244.20 220.34 C 239.75 219.25 235.12 218.59 230.59 219.60 C 225.95 220.60 220.38 220.31 217.31 216.17 C 234.11 199.26 251.02 182.46 268.31 166.05 C 274.05 160.51 279.64 154.80 285.31 149.18 C 289.19 145.64 292.39 141.32 296.83 138.43 C 297.44 139.24 298.06 140.07 298.68 140.89 C 299.89 137.71 300.58 134.36 301.23 131.03 C 298.13 131.85 294.98 132.49 291.83 133.10 C 292.64 134.19 293.49 135.26 294.35 136.32 C 291.00 139.36 287.77 142.52 284.51 145.65 C 278.65 151.29 272.74 156.88 266.94 162.59 C 250.43 179.26 233.59 195.58 216.72 211.88 C 214.44 214.13 212.17 216.37 209.85 218.57 C 205.20 214.80 200.81 210.71 196.27 206.82 C 195.51 206.09 194.75 205.36 193.99 204.64 C 191.13 210.68 188.20 216.69 185.30 222.72 C 183.32 226.64 181.64 230.71 179.61 234.61 L 179.29 234.88 C 175.58 236.73 174.32 241.43 175.73 245.16 C 177.12 250.41 182.45 252.98 187.07 254.85 C 199.51 259.14 213.00 256.80 225.36 253.43 C 229.52 252.58 234.50 250.76 238.26 253.70 C 240.06 254.80 240.38 257.42 239.08 259.04 C 235.80 264.35 229.37 265.85 224.48 269.18 L 223.96 269.31 C 223.97 270.50 223.98 271.70 223.99 272.89 C 221.33 273.64 218.67 274.39 216.01 275.14 C 216.01 273.74 216.02 272.34 216.03 270.95 C 214.34 270.96 212.66 270.98 210.97 271.01 C 207.98 271.03 204.96 271.12 202.00 270.59 C 198.02 269.90 193.95 269.96 190.04 268.87 C 190.04 270.29 190.04 271.72 190.04 273.15 C 187.69 273.50 185.35 273.85 183.01 274.20 C 183.02 271.84 183.02 269.48 183.03 267.13 C 174.33 263.97 165.84 260.03 158.39 254.48 C 155.58 252.33 152.77 250.17 150.20 247.74 C 144.75 242.67 140.14 236.79 136.11 230.54 C 134.37 227.62 132.77 224.62 131.22 221.59 C 129.78 218.28 128.47 214.90 127.26 211.50 C 126.20 207.73 125.15 203.95 124.41 200.11 C 125.66 199.27 126.90 197.49 128.61 198.36 C 136.32 201.97 139.31 210.44 144.27 216.73 C 147.48 220.99 153.71 221.02 157.81 218.04 C 158.57 219.22 159.35 220.37 160.13 221.54 C 163.61 216.93 165.52 211.39 168.36 206.39 C 172.78 197.17 178.07 188.35 182.07 178.94 C 185.87 181.52 189.43 184.44 193.09 187.21 C 197.46 190.43 201.60 193.96 206.03 197.09 C 208.12 195.77 209.67 193.78 211.43 192.07 C 221.10 182.31 230.87 172.63 240.61 162.93 C 247.25 163.01 252.54 158.34 257.32 154.31 C 263.69 148.03 271.50 141.36 271.84 131.69 C 274.87 128.64 277.89 125.59 280.93 122.56 C 276.50 118.17 271.87 113.97 267.07 109.98 C 262.80 106.74 258.29 103.81 253.60 101.22 C 252.48 100.72 251.37 100.21 250.25 99.71 L 249.77 99.39 C 249.23 99.09 248.15 98.49 247.61 98.19 C 243.18 96.41 238.73 94.61 234.06 93.52 C 234.01 88.35 233.98 83.17 234.00 78.00 C 232.18 77.99 230.36 77.99 228.54 77.99 C 229.54 76.27 230.18 73.98 232.31 73.31 M 299.38 153.36 C 293.46 158.09 288.19 163.54 282.24 168.22 C 275.30 175.27 268.21 182.17 261.30 189.25 C 255.56 194.14 249.00 198.79 245.77 205.84 C 243.81 209.54 247.80 212.66 250.55 214.46 C 259.30 219.77 266.80 226.81 273.67 234.34 C 278.11 239.70 282.24 245.63 283.43 252.65 C 285.41 260.00 281.71 267.00 280.03 273.98 C 286.71 270.95 291.07 264.94 295.49 259.38 C 301.15 251.07 306.34 242.06 307.92 231.99 C 307.91 223.47 301.26 217.27 298.45 209.68 C 295.77 202.51 294.10 194.55 296.00 186.98 C 297.11 178.99 301.65 172.17 305.06 165.04 C 306.47 162.28 306.36 159.03 305.94 156.05 C 305.20 153.35 301.80 151.91 299.38 153.36 Z" />
</g>
<g id="#e4b323f8">
<path fill="#e4b323" opacity="0.97" d=" M 93.71 89.55 C 98.08 84.36 103.31 80.00 108.34 75.48 C 108.85 78.69 109.15 81.93 109.25 85.19 C 104.12 90.00 99.12 94.98 94.64 100.42 C 94.14 96.81 93.83 93.19 93.71 89.55 Z" />
<path fill="#e4b323" opacity="0.97" d=" M 94.30 273.56 C 98.96 278.89 103.35 284.53 108.91 288.99 C 108.57 293.03 110.54 296.76 110.44 300.76 C 104.17 295.95 98.65 290.28 93.17 284.61 C 93.85 280.96 94.22 277.27 94.30 273.56 Z" />
</g>
<g id="#ce9f23e8">
<path fill="#ce9f23" opacity="0.91" d=" M 172.35 78.05 C 174.87 78.01 177.39 77.97 179.91 77.98 C 180.41 77.98 181.40 77.99 181.89 77.99 C 181.78 86.89 181.43 95.81 182.04 104.69 L 182.05 104.82 C 175.29 106.28 169.16 109.80 163.26 113.30 C 162.99 109.42 162.77 105.53 162.63 101.64 C 165.73 99.84 169.23 98.77 172.14 96.66 C 172.65 90.48 172.23 84.25 172.35 78.05 Z" />
</g>
<g id="#d6ac31ef">
<path fill="#d6ac31" opacity="0.94" d=" M 181.89 77.99 C 183.66 78.00 185.43 78.01 187.20 78.02 C 187.40 81.67 187.41 85.33 187.22 88.98 C 185.81 89.00 184.40 89.01 183.00 89.02 C 182.50 94.20 184.16 99.82 182.04 104.69 C 181.43 95.81 181.78 86.89 181.89 77.99 Z" />
</g>
<g id="#e7c046fb">
<path fill="#e7c046" opacity="1.00" d=" M 187.20 78.02 C 191.51 78.05 195.81 77.99 200.11 77.98 C 200.12 81.98 200.14 85.97 200.13 89.97 C 201.36 89.97 202.59 89.97 203.83 89.97 C 203.76 93.34 203.73 96.72 203.76 100.09 C 199.21 100.98 194.54 100.99 190.03 102.13 C 190.03 97.73 190.03 93.34 190.03 88.94 C 189.33 88.95 187.92 88.97 187.22 88.98 C 187.41 85.33 187.40 81.67 187.20 78.02 Z" />
</g>
<g id="#f2d562ff">
<path fill="#f2d562" opacity="1.00" d=" M 206.00 78.01 C 209.93 78.00 213.87 78.00 217.80 78.00 C 218.33 78.00 219.40 78.00 219.93 78.01 C 219.91 81.34 219.90 84.67 219.89 88.01 C 218.59 88.00 217.29 87.99 216.00 87.99 C 216.00 92.00 216.01 96.00 216.00 100.01 C 211.92 100.03 207.83 99.86 203.76 100.09 C 203.73 96.72 203.76 93.34 203.83 89.97 C 204.37 89.97 205.46 89.97 206.01 89.97 C 205.97 85.98 205.98 82.00 206.00 78.01 Z" />
</g>
<g id="#f8e67eff">
<path fill="#f8e67e" opacity="1.00" d=" M 219.93 78.01 C 222.80 78.02 225.67 78.01 228.54 77.99 C 230.36 77.99 232.18 77.99 234.00 78.00 C 233.98 83.17 234.01 88.35 234.06 93.52 C 234.03 97.07 233.88 100.62 234.11 104.17 C 232.36 103.65 230.61 103.13 228.84 102.72 C 227.23 102.32 225.62 102.02 224.00 101.71 C 224.02 97.18 224.07 92.64 223.90 88.12 C 222.56 88.07 221.23 88.03 219.89 88.01 C 219.90 84.67 219.91 81.34 219.93 78.01 Z" />
<path fill="#f8e67e" opacity="1.00" d=" M 224.48 269.18 C 228.01 268.57 231.46 267.58 234.94 266.76 C 234.82 270.19 234.99 273.63 234.87 277.07 L 234.00 277.34 C 234.03 283.00 233.96 288.66 234.07 294.32 C 234.04 294.75 233.98 295.59 233.95 296.01 C 229.37 295.98 224.78 296.02 220.20 296.04 C 220.17 292.69 220.12 289.34 220.04 285.99 C 221.35 285.98 222.66 285.98 223.98 285.98 C 224.02 281.62 224.03 277.25 223.99 272.89 C 223.98 271.70 223.97 270.50 223.96 269.31 L 224.48 269.18 Z" />
</g>
<g id="#fee772ff">
<path fill="#fee772" opacity="1.00" d=" M 296.08 77.71 C 301.40 82.28 306.04 87.55 311.05 92.44 L 311.05 92.61 C 311.11 96.92 310.92 101.22 310.81 105.52 C 306.09 99.57 301.22 93.69 295.77 88.39 C 295.97 84.83 296.10 81.27 296.08 77.71 Z" />
</g>
<g id="#00000042">
<path fill="#000000" opacity="0.26" d=" M 216.00 87.99 C 217.29 87.99 218.59 88.00 219.89 88.01 C 221.23 88.03 222.56 88.07 223.90 88.12 C 224.07 92.64 224.02 97.18 224.00 101.71 C 225.62 102.02 227.23 102.32 228.84 102.72 C 223.66 107.12 216.97 103.99 211.01 104.16 C 201.42 104.89 191.54 107.82 182.05 104.82 L 182.04 104.69 C 184.16 99.82 182.50 94.20 183.00 89.02 C 184.40 89.01 185.81 89.00 187.22 88.98 C 187.92 88.97 189.33 88.95 190.03 88.94 C 190.03 93.34 190.03 97.73 190.03 102.13 C 194.54 100.99 199.21 100.98 203.76 100.09 C 207.83 99.86 211.92 100.03 216.00 100.01 C 216.01 96.00 216.00 92.00 216.00 87.99 Z" />
</g>
<g id="#f0be26ff">
<path fill="#f0be26" opacity="1.00" d=" M 65.70 134.09 C 72.19 117.70 81.67 102.45 93.71 89.55 C 93.83 93.19 94.14 96.81 94.64 100.42 C 84.41 112.89 76.66 127.28 71.21 142.44 C 71.17 140.39 71.13 138.32 70.66 136.32 C 69.41 134.96 67.31 134.85 65.70 134.09 Z" />
</g>
<g id="#fee365ff">
<path fill="#fee365" opacity="1.00" d=" M 311.05 92.61 C 315.98 98.61 320.68 104.80 324.73 111.44 C 325.51 112.93 326.78 114.25 327.01 115.98 C 327.30 121.49 327.17 127.01 326.53 132.49 C 325.64 130.46 324.68 128.45 323.76 126.43 C 319.95 119.16 315.62 112.17 310.81 105.52 C 310.92 101.22 311.11 96.92 311.05 92.61 Z" />
</g>
<g id="#fdf08cff">
<path fill="#fdf08c" opacity="1.00" d=" M 234.06 93.52 C 238.73 94.61 243.18 96.41 247.61 98.19 C 248.15 98.49 249.23 99.09 249.77 99.39 L 250.25 99.71 C 250.50 103.32 250.48 107.01 249.22 110.45 C 247.28 109.57 245.37 108.65 243.47 107.71 C 241.51 106.85 239.52 106.05 237.53 105.26 C 236.39 104.92 235.24 104.55 234.11 104.17 C 233.88 100.62 234.03 97.07 234.06 93.52 Z" />
</g>
<g id="#fee976ff">
<path fill="#fee976" opacity="1.00" d=" M 250.25 99.71 C 251.37 100.21 252.48 100.72 253.60 101.22 C 258.29 103.81 262.80 106.74 267.07 109.98 C 267.07 118.76 266.78 127.54 267.18 136.31 C 264.52 138.98 261.86 141.65 259.19 144.31 C 258.92 138.82 259.00 133.33 258.88 127.84 C 260.95 125.76 263.03 123.69 265.13 121.63 C 260.02 117.67 254.98 113.55 249.17 110.63 L 249.22 110.45 C 250.48 107.01 250.50 103.32 250.25 99.71 Z" />
</g>
<g id="#ddac23f3">
<path fill="#ddac23" opacity="0.95" d=" M 149.39 110.41 C 153.54 107.11 157.99 104.20 162.63 101.64 C 162.77 105.53 162.99 109.42 163.26 113.30 C 158.61 116.18 154.39 119.67 150.26 123.23 C 150.27 118.94 150.09 114.65 149.39 110.41 Z" />
</g>
<g id="#00000033">
<path fill="#000000" opacity="0.20" d=" M 211.01 104.16 C 216.97 103.99 223.66 107.12 228.84 102.72 C 230.61 103.13 232.36 103.65 234.11 104.17 C 235.24 104.55 236.39 104.92 237.53 105.26 C 239.52 106.05 241.51 106.85 243.47 107.71 C 245.37 108.65 247.28 109.57 249.22 110.45 L 249.17 110.63 C 254.98 113.55 260.02 117.67 265.13 121.63 C 263.03 123.69 260.95 125.76 258.88 127.84 C 255.88 130.83 252.88 133.83 249.93 136.87 C 249.01 137.64 248.24 138.72 247.07 139.09 C 245.85 138.33 244.75 137.43 243.59 136.60 C 245.23 133.37 247.75 129.99 246.82 126.16 C 245.95 120.73 241.93 116.00 236.63 114.45 C 230.13 112.60 223.37 111.92 216.84 110.17 C 210.34 108.43 203.55 108.89 196.96 109.80 C 191.12 110.63 184.93 109.06 179.34 111.38 C 176.13 112.61 173.98 115.41 171.84 117.95 C 172.55 118.71 173.25 119.47 173.97 120.22 C 174.63 124.06 175.06 127.95 175.93 131.76 C 172.38 134.63 168.69 137.32 165.09 140.12 C 164.53 139.85 163.43 139.29 162.87 139.01 C 159.78 137.59 156.71 136.03 153.46 135.02 C 149.94 138.32 147.71 142.67 145.03 146.62 C 148.09 149.60 151.06 152.67 154.19 155.59 C 153.11 160.08 151.74 164.48 150.21 168.84 C 146.11 169.47 142.11 170.61 138.01 171.22 C 137.78 176.08 137.96 180.95 138.00 185.81 C 141.23 186.41 144.47 186.92 147.74 187.22 C 148.40 190.54 148.90 193.89 149.37 197.24 C 149.75 199.03 150.18 200.80 150.64 202.57 C 152.33 208.02 154.75 213.23 157.81 218.04 C 153.71 221.02 147.48 220.99 144.27 216.73 C 139.31 210.44 136.32 201.97 128.61 198.36 C 126.90 197.49 125.66 199.27 124.41 200.11 C 123.85 194.41 122.62 188.73 123.00 182.97 C 123.75 175.04 124.82 167.10 127.26 159.49 C 128.50 156.10 129.83 152.74 131.23 149.41 C 131.49 148.92 132.01 147.92 132.27 147.43 C 132.95 146.11 133.64 144.80 134.33 143.50 C 138.77 136.12 143.95 129.12 150.26 123.23 C 154.39 119.67 158.61 116.18 163.26 113.30 C 169.16 109.80 175.29 106.28 182.05 104.82 C 191.54 107.82 201.42 104.89 211.01 104.16 Z" />
<path fill="#000000" opacity="0.20" d=" M 196.29 313.37 C 200.87 311.01 206.30 310.05 211.16 312.20 C 211.98 312.53 212.80 312.85 213.63 313.18 C 218.52 316.49 222.48 321.92 222.14 328.07 C 222.91 335.51 217.46 342.43 210.64 344.85 C 208.13 345.47 205.51 346.37 202.91 345.68 C 205.40 343.34 207.94 340.57 208.03 336.95 C 207.93 332.41 205.69 327.27 200.95 325.97 C 195.60 323.74 189.63 327.94 188.57 333.35 C 187.40 329.43 187.87 325.23 189.06 321.38 C 190.89 318.23 193.31 315.47 196.29 313.37 Z" />
</g>
<g id="#00000029">
<path fill="#000000" opacity="0.16" d=" M 196.96 109.80 C 203.55 108.89 210.34 108.43 216.84 110.17 C 223.37 111.92 230.13 112.60 236.63 114.45 C 241.93 116.00 245.95 120.73 246.82 126.16 C 247.75 129.99 245.23 133.37 243.59 136.60 C 241.96 135.41 240.30 134.28 238.58 133.23 C 236.56 132.25 234.57 131.24 232.58 130.23 C 231.03 129.63 229.46 129.08 227.89 128.55 C 227.41 128.31 226.45 127.83 225.97 127.59 C 225.87 124.35 226.27 121.13 226.71 117.93 C 226.02 117.43 225.29 116.98 224.55 116.56 C 223.53 116.27 222.51 115.98 221.50 115.70 C 218.82 114.82 216.08 114.08 213.28 113.76 C 212.25 115.64 211.26 117.54 210.27 119.45 C 209.36 121.28 208.44 123.10 207.45 124.89 C 207.15 124.91 206.57 124.94 206.28 124.96 C 203.48 125.02 200.69 124.97 197.89 125.07 C 196.57 125.13 195.24 125.19 193.92 125.25 C 192.78 123.35 191.63 121.47 190.50 119.57 C 189.49 117.80 188.51 116.02 187.53 114.23 C 186.65 114.47 185.78 114.70 184.91 114.94 C 181.13 115.98 177.40 117.27 173.96 119.17 L 173.97 120.22 C 173.25 119.47 172.55 118.71 171.84 117.95 C 173.98 115.41 176.13 112.61 179.34 111.38 C 184.93 109.06 191.12 110.63 196.96 109.80 Z" />
<path fill="#000000" opacity="0.16" d=" M 261.12 265.06 C 265.31 262.24 269.41 259.23 272.97 255.63 C 272.44 264.41 265.49 271.01 258.56 275.53 C 249.94 281.09 239.93 285.49 234.07 294.32 C 233.96 288.66 234.03 283.00 234.00 277.34 L 234.87 277.07 C 236.42 276.62 237.96 276.18 239.52 275.78 C 243.14 274.36 246.77 272.94 250.30 271.28 C 254.03 269.44 257.62 267.32 261.12 265.06 Z" />
</g>
<g id="#fee469ff">
<path fill="#fee469" opacity="1.00" d=" M 267.07 109.98 C 271.87 113.97 276.50 118.17 280.93 122.56 C 277.89 125.59 274.87 128.64 271.84 131.69 C 270.28 133.23 268.73 134.76 267.18 136.31 C 266.78 127.54 267.07 118.76 267.07 109.98 Z" />
</g>
<g id="#eebd26ff">
<path fill="#eebd26" opacity="1.00" d=" M 133.35 126.47 C 138.00 120.45 143.43 115.12 149.39 110.41 C 150.09 114.65 150.27 118.94 150.26 123.23 C 143.95 129.12 138.77 136.12 134.33 143.50 C 133.72 137.83 134.42 132.09 133.35 126.47 Z" />
<path fill="#eebd26" opacity="1.00" d=" M 136.11 230.54 C 140.14 236.79 144.75 242.67 150.20 247.74 C 150.01 251.97 149.83 256.21 149.61 260.45 C 144.34 256.31 139.76 251.37 135.19 246.48 C 136.41 241.26 135.98 235.86 136.11 230.54 Z" />
</g>
<g id="#f4db6cff">
<path fill="#f4db6c" opacity="1.00" d=" M 213.28 113.76 C 216.08 114.08 218.82 114.82 221.50 115.70 C 222.51 115.98 223.53 116.27 224.55 116.56 C 225.29 116.98 226.02 117.43 226.71 117.93 C 226.27 121.13 225.87 124.35 225.97 127.59 C 226.45 127.83 227.41 128.31 227.89 128.55 C 227.00 131.90 226.69 135.35 227.08 138.79 C 220.45 136.27 213.32 134.94 206.23 134.94 C 206.32 131.62 206.33 128.29 206.28 124.96 C 206.57 124.94 207.15 124.91 207.45 124.89 C 208.44 123.10 209.36 121.28 210.27 119.45 C 211.26 117.54 212.25 115.64 213.28 113.76 Z" />
<path fill="#f4db6c" opacity="1.00" d=" M 211.16 312.20 C 210.80 309.22 210.79 306.16 211.79 303.30 C 217.05 304.95 222.10 307.84 225.44 312.32 C 224.74 323.04 224.59 333.86 225.45 344.58 C 222.03 349.12 216.86 352.07 211.47 353.67 C 211.16 350.73 210.88 347.79 210.64 344.85 C 217.46 342.43 222.91 335.51 222.14 328.07 C 222.48 321.92 218.52 316.49 213.63 313.18 C 212.80 312.85 211.98 312.53 211.16 312.20 Z" />
</g>
<g id="#cfa226ea">
<path fill="#cfa226" opacity="0.92" d=" M 173.96 119.17 C 177.40 117.27 181.13 115.98 184.91 114.94 C 184.77 123.40 184.29 131.90 185.15 140.34 C 179.63 142.92 174.09 145.97 170.23 150.81 C 167.31 154.35 165.17 158.44 163.16 162.55 C 162.69 154.71 162.92 146.85 162.87 139.01 C 163.43 139.29 164.53 139.85 165.09 140.12 C 168.69 137.32 172.38 134.63 175.93 131.76 C 175.06 127.95 174.63 124.06 173.97 120.22 L 173.96 119.17 Z" />
</g>
<g id="#fede58ff">
<path fill="#fede58" opacity="1.00" d=" M 327.01 115.98 L 327.69 116.02 C 327.94 116.62 328.43 117.84 328.68 118.45 C 329.39 119.74 330.10 121.03 330.76 122.36 C 331.58 124.11 332.46 125.84 333.31 127.58 C 334.81 130.81 336.14 134.12 337.35 137.47 C 338.18 139.82 339.01 142.16 339.82 144.52 C 339.91 145.01 340.10 146.00 340.20 146.50 C 342.34 151.16 342.13 156.60 344.35 161.16 C 348.30 162.19 352.42 163.08 356.03 165.25 L 356.02 165.66 C 355.92 169.20 355.71 172.74 355.39 176.27 C 353.55 174.05 351.05 172.57 348.62 171.09 C 344.99 169.89 340.98 169.35 337.33 170.74 C 336.85 170.83 335.91 170.99 335.44 171.08 C 333.66 172.20 331.92 173.39 330.27 174.69 C 330.07 171.19 330.01 167.69 330.10 164.19 C 331.87 163.36 333.70 162.65 335.52 161.91 C 334.70 156.67 333.27 151.57 331.76 146.50 C 331.08 144.49 330.41 142.48 329.73 140.47 C 329.07 138.79 328.41 137.12 327.72 135.45 C 327.31 134.47 326.92 133.48 326.53 132.49 C 327.17 127.01 327.30 121.49 327.01 115.98 Z" />
</g>
<g id="#e4bd43f9">
<path fill="#e4bd43" opacity="0.98" d=" M 190.50 119.57 C 191.63 121.47 192.78 123.35 193.92 125.25 C 195.24 125.19 196.57 125.13 197.89 125.07 C 197.91 128.77 197.89 132.46 197.80 136.16 C 195.29 136.82 192.77 137.46 190.29 138.26 C 189.99 132.03 189.82 125.78 190.50 119.57 Z" />
</g>
<g id="#eecb52ff">
<path fill="#eecb52" opacity="1.00" d=" M 197.89 125.07 C 200.69 124.97 203.48 125.02 206.28 124.96 C 206.33 128.29 206.32 131.62 206.23 134.94 C 203.42 135.34 200.63 135.91 197.80 136.16 C 197.89 132.46 197.91 128.77 197.89 125.07 Z" />
</g>
<g id="#f5c627ff">
<path fill="#f5c627" opacity="1.00" d=" M 133.35 126.47 C 134.42 132.09 133.72 137.83 134.33 143.50 C 133.64 144.80 132.95 146.11 132.27 147.43 C 132.01 147.92 131.49 148.92 131.23 149.41 C 129.83 152.74 128.50 156.10 127.26 159.49 C 124.82 167.10 123.75 175.04 123.00 182.97 C 122.62 188.73 123.85 194.41 124.41 200.11 C 125.15 203.95 126.20 207.73 127.26 211.50 C 128.47 214.90 129.78 218.28 131.22 221.59 C 132.77 224.62 134.37 227.62 136.11 230.54 C 135.98 235.86 136.41 241.26 135.19 246.48 C 128.50 238.39 123.07 229.27 119.25 219.48 C 110.04 195.81 110.95 168.55 121.69 145.54 C 122.37 144.21 123.05 142.88 123.70 141.54 C 125.68 137.53 128.17 133.81 130.57 130.04 C 131.51 128.86 132.43 127.66 133.35 126.47 Z" />
</g>
<g id="#fdec80ff">
<path fill="#fdec80" opacity="1.00" d=" M 249.93 136.87 C 252.88 133.83 255.88 130.83 258.88 127.84 C 259.00 133.33 258.92 138.82 259.19 144.31 C 256.20 147.31 253.21 150.30 250.21 153.29 C 250.03 147.82 250.03 142.34 249.93 136.87 Z" />
</g>
<g id="#fcf08bff">
<path fill="#fcf08b" opacity="1.00" d=" M 227.08 138.79 C 226.69 135.35 227.00 131.90 227.89 128.55 C 229.46 129.08 231.03 129.63 232.58 130.23 C 234.57 131.24 236.56 132.25 238.58 133.23 C 240.30 134.28 241.96 135.41 243.59 136.60 C 244.75 137.43 245.85 138.33 247.07 139.09 C 248.24 138.72 249.01 137.64 249.93 136.87 C 250.03 142.34 250.03 147.82 250.21 153.29 C 247.00 156.50 243.79 159.70 240.61 162.93 C 230.87 172.63 221.10 182.31 211.43 192.07 C 211.31 191.17 211.08 189.37 210.97 188.47 C 217.00 182.35 222.98 176.16 229.02 170.05 C 233.08 165.91 237.14 161.76 241.21 157.62 C 242.87 155.91 244.56 154.23 246.25 152.54 C 240.82 146.79 234.58 141.60 227.08 138.79 Z" />
</g>
<g id="#00000031">
<path fill="#000000" opacity="0.19" d=" M 121.79 139.91 C 124.15 136.18 126.48 132.13 130.57 130.04 C 128.17 133.81 125.68 137.53 123.70 141.54 C 123.05 142.88 122.37 144.21 121.69 145.54 C 110.95 168.55 110.04 195.81 119.25 219.48 C 123.07 229.27 128.50 238.39 135.19 246.48 C 139.76 251.37 144.34 256.31 149.61 260.45 C 153.31 263.38 157.28 265.96 161.38 268.29 C 164.79 270.40 168.44 272.06 172.20 273.43 C 172.56 281.26 172.29 289.11 172.34 296.96 C 173.43 296.98 174.52 297.00 175.61 297.02 C 179.58 301.93 185.65 304.27 191.46 306.24 C 188.88 307.95 186.45 309.93 184.61 312.45 C 182.33 315.45 180.89 318.97 179.72 322.53 C 178.10 322.28 176.47 322.05 174.85 321.81 C 174.53 321.75 173.90 321.63 173.59 321.57 C 176.03 318.47 177.97 314.43 176.43 310.47 C 173.62 305.15 168.20 301.59 166.00 295.87 C 163.27 288.79 162.09 280.85 157.10 274.85 C 153.14 269.57 146.70 267.32 141.57 263.47 C 137.96 260.77 134.32 258.04 131.14 254.82 C 117.11 239.66 107.98 219.77 106.72 199.06 C 106.14 194.38 105.55 189.64 106.46 184.95 C 107.62 168.93 113.60 153.60 121.79 139.91 Z" />
</g>
<g id="#ffd746ff">
<path fill="#ffd746" opacity="1.00" d=" M 291.83 133.10 C 294.98 132.49 298.13 131.85 301.23 131.03 C 300.58 134.36 299.89 137.71 298.68 140.89 C 298.06 140.07 297.44 139.24 296.83 138.43 C 292.39 141.32 289.19 145.64 285.31 149.18 C 285.11 148.30 284.71 146.53 284.51 145.65 C 287.77 142.52 291.00 139.36 294.35 136.32 C 293.49 135.26 292.64 134.19 291.83 133.10 Z" />
<path fill="#ffd746" opacity="1.00" d=" M 356.02 165.66 C 359.78 167.39 362.31 170.81 364.45 174.22 C 365.32 175.93 366.07 177.71 366.83 179.47 C 368.42 184.69 368.45 190.28 366.80 195.49 C 363.42 205.07 354.48 212.69 344.14 213.17 C 343.94 213.77 343.53 214.96 343.33 215.55 C 343.31 212.41 343.42 209.23 342.93 206.12 C 342.43 204.93 340.98 204.68 339.98 204.08 C 343.23 204.25 346.51 204.03 349.59 202.90 C 354.02 200.35 357.23 196.31 358.96 191.52 C 359.53 186.14 358.97 180.58 355.39 176.27 C 355.71 172.74 355.92 169.20 356.02 165.66 Z" />
</g>
<g id="#0000002c">
<path fill="#000000" opacity="0.17" d=" M 267.18 136.31 C 268.73 134.76 270.28 133.23 271.84 131.69 C 271.50 141.36 263.69 148.03 257.32 154.31 C 252.54 158.34 247.25 163.01 240.61 162.93 C 243.79 159.70 247.00 156.50 250.21 153.29 C 253.21 150.30 256.20 147.31 259.19 144.31 C 261.86 141.65 264.52 138.98 267.18 136.31 Z" />
</g>
<g id="#f2c227ff">
<path fill="#f2c227" opacity="1.00" d=" M 57.64 161.67 C 59.91 152.36 62.08 142.99 65.70 134.09 C 67.31 134.85 69.41 134.96 70.66 136.32 C 71.13 138.32 71.17 140.39 71.21 142.44 C 69.16 148.83 67.56 155.34 66.02 161.87 C 69.77 163.28 73.49 164.95 76.62 167.51 C 80.64 170.88 83.17 175.61 84.91 180.49 C 86.63 187.59 85.41 195.37 81.35 201.49 C 77.88 206.97 72.16 210.58 66.06 212.48 C 68.56 224.21 72.06 235.74 77.23 246.59 C 78.07 248.21 78.89 249.84 79.70 251.47 C 80.29 252.49 80.88 253.50 81.48 254.52 C 85.13 261.26 89.54 267.56 94.30 273.56 C 94.22 277.27 93.85 280.96 93.17 284.61 C 83.24 273.52 74.85 261.03 68.69 247.46 C 65.40 240.26 62.69 232.79 60.67 225.13 C 59.60 221.19 58.81 217.18 57.87 213.20 C 53.66 212.70 49.51 211.49 45.90 209.22 C 35.45 202.93 30.89 188.80 35.70 177.60 C 39.19 168.71 48.02 162.03 57.64 161.67 M 51.34 172.16 C 47.26 174.31 44.94 178.34 43.07 182.38 C 43.00 184.56 42.92 186.75 42.81 188.94 C 42.99 190.90 43.48 192.81 44.16 194.66 C 46.12 198.05 48.96 200.87 52.36 202.82 C 53.22 203.17 54.09 203.50 54.96 203.83 C 58.16 204.29 61.40 204.17 64.62 203.93 C 68.33 202.21 72.37 200.32 74.31 196.47 C 77.47 191.76 77.90 185.63 75.80 180.41 C 73.80 176.48 70.55 173.26 66.65 171.22 C 61.68 169.26 56.01 169.52 51.34 172.16 Z" />
</g>
<g id="#ddad23f3">
<path fill="#ddad23" opacity="0.95" d=" M 153.46 135.02 C 156.71 136.03 159.78 137.59 162.87 139.01 C 162.92 146.85 162.69 154.71 163.16 162.55 C 160.04 169.64 158.54 177.31 157.97 185.01 C 158.26 193.11 160.12 201.17 163.74 208.45 C 165.95 204.78 167.83 200.92 169.79 197.11 C 173.67 189.47 177.61 181.85 181.45 174.18 C 181.91 174.59 182.38 175.00 182.85 175.41 C 182.60 176.59 182.34 177.76 182.07 178.94 C 178.07 188.35 172.78 197.17 168.36 206.39 C 165.52 211.39 163.61 216.93 160.13 221.54 C 159.35 220.37 158.57 219.22 157.81 218.04 C 154.75 213.23 152.33 208.02 150.64 202.57 C 150.18 200.80 149.75 199.03 149.37 197.24 C 151.18 187.89 149.49 178.29 150.21 168.84 C 151.74 164.48 153.11 160.08 154.19 155.59 C 151.06 152.67 148.09 149.60 145.03 146.62 C 147.71 142.67 149.94 138.32 153.46 135.02 Z" />
</g>
<g id="#0000003b">
<path fill="#000000" opacity="0.23" d=" M 197.80 136.16 C 200.63 135.91 203.42 135.34 206.23 134.94 C 213.32 134.94 220.45 136.27 227.08 138.79 C 234.58 141.60 240.82 146.79 246.25 152.54 C 244.56 154.23 242.87 155.91 241.21 157.62 C 235.93 157.53 231.95 154.07 228.20 150.81 C 222.76 146.01 215.16 145.79 208.36 144.68 C 201.15 144.02 193.62 143.36 186.63 145.72 C 181.11 147.28 175.93 149.94 170.23 150.81 C 174.09 145.97 179.63 142.92 185.15 140.34 C 186.83 139.57 188.54 138.86 190.29 138.26 C 192.77 137.46 195.29 136.82 197.80 136.16 Z" />
<path fill="#000000" opacity="0.23" d=" M 183.01 274.20 C 185.35 273.85 187.69 273.50 190.04 273.15 C 190.05 277.76 189.98 282.37 190.09 286.98 C 188.30 286.98 186.51 286.98 184.73 286.98 C 184.30 286.98 183.44 286.98 183.01 286.98 C 183.01 282.72 182.99 278.46 183.01 274.20 Z" />
</g>
<g id="#00000021">
<path fill="#000000" opacity="0.13" d=" M 186.63 145.72 C 193.62 143.36 201.15 144.02 208.36 144.68 C 215.16 145.79 222.76 146.01 228.20 150.81 C 231.95 154.07 235.93 157.53 241.21 157.62 C 237.14 161.76 233.08 165.91 229.02 170.05 C 225.82 165.09 223.10 159.31 217.66 156.41 C 208.22 151.08 196.51 151.02 186.42 154.50 C 175.96 157.39 166.99 166.20 165.06 177.04 C 163.95 184.18 168.56 190.32 169.79 197.11 C 167.83 200.92 165.95 204.78 163.74 208.45 C 160.12 201.17 158.26 193.11 157.97 185.01 C 158.54 177.31 160.04 169.64 163.16 162.55 C 165.17 158.44 167.31 154.35 170.23 150.81 C 175.93 149.94 181.11 147.28 186.63 145.72 Z" />
</g>
<g id="#fee265ff">
<path fill="#fee265" opacity="1.00" d=" M 266.94 162.59 C 272.74 156.88 278.65 151.29 284.51 145.65 C 284.71 146.53 285.11 148.30 285.31 149.18 C 279.64 154.80 274.05 160.51 268.31 166.05 C 267.85 164.90 267.40 163.74 266.94 162.59 Z" />
</g>
<g id="#0000000b">
<path fill="#000000" opacity="0.04" d=" M 186.42 154.50 C 196.51 151.02 208.22 151.08 217.66 156.41 C 223.10 159.31 225.82 165.09 229.02 170.05 C 222.98 176.16 217.00 182.35 210.97 188.47 C 209.38 190.08 207.84 191.76 206.03 193.13 C 201.78 190.13 197.72 186.87 193.58 183.70 C 190.06 180.86 186.30 178.33 182.85 175.41 C 182.38 175.00 181.91 174.59 181.45 174.18 C 177.61 181.85 173.67 189.47 169.79 197.11 C 168.56 190.32 163.95 184.18 165.06 177.04 C 166.99 166.20 175.96 157.39 186.42 154.50 Z" />
</g>
<g id="#f8e675ff">
<path fill="#f8e675" opacity="1.00" d=" M 216.72 211.88 C 233.59 195.58 250.43 179.26 266.94 162.59 C 267.40 163.74 267.85 164.90 268.31 166.05 C 251.02 182.46 234.11 199.26 217.31 216.17 L 217.25 215.81 C 217.06 214.50 216.88 213.19 216.72 211.88 Z" />
</g>
<g id="#fee262ff">
<path fill="#fee262" opacity="1.00" d=" M 317.16 179.45 C 319.42 172.99 323.85 167.21 330.10 164.19 C 330.01 167.69 330.07 171.19 330.27 174.69 C 328.67 176.43 327.34 178.38 326.08 180.38 C 325.02 183.47 324.81 186.74 324.91 189.99 C 325.95 193.61 327.58 197.13 330.23 199.87 C 330.32 203.15 329.87 206.41 329.16 209.61 C 324.68 207.02 321.04 203.05 318.61 198.51 C 315.90 192.53 315.10 185.75 317.16 179.45 Z" />
</g>
<g id="#ecbb25fe">
<path fill="#ecbb25" opacity="1.00" d=" M 138.01 171.22 C 142.11 170.61 146.11 169.47 150.21 168.84 C 149.49 178.29 151.18 187.89 149.37 197.24 C 148.90 193.89 148.40 190.54 147.74 187.22 C 144.47 186.92 141.23 186.41 138.00 185.81 C 137.96 180.95 137.78 176.08 138.01 171.22 Z" />
</g>
<g id="#d5ad36eb">
<path fill="#d5ad36" opacity="0.92" d=" M 182.07 178.94 C 182.34 177.76 182.60 176.59 182.85 175.41 C 186.30 178.33 190.06 180.86 193.58 183.70 C 193.46 184.58 193.21 186.33 193.09 187.21 C 189.43 184.44 185.87 181.52 182.07 178.94 Z" />
</g>
<g id="#efcf58ff">
<path fill="#efcf58" opacity="1.00" d=" M 193.58 183.70 C 197.72 186.87 201.78 190.13 206.03 193.13 C 207.84 191.76 209.38 190.08 210.97 188.47 C 211.08 189.37 211.31 191.17 211.43 192.07 C 209.67 193.78 208.12 195.77 206.03 197.09 C 201.60 193.96 197.46 190.43 193.09 187.21 C 193.21 186.33 193.46 184.58 193.58 183.70 Z" />
</g>
<g id="#fede59ff">
<path fill="#fede59" opacity="1.00" d=" M 330.23 199.87 C 332.51 201.67 335.11 203.03 337.86 203.98 C 338.39 204.00 339.45 204.05 339.98 204.08 C 340.98 204.68 342.43 204.93 342.93 206.12 C 343.42 209.23 343.31 212.41 343.33 215.55 C 342.22 222.00 340.37 228.28 338.30 234.47 C 337.35 237.14 336.34 239.79 335.29 242.42 C 333.24 247.26 331.12 252.08 328.48 256.64 C 327.61 250.96 328.38 245.19 327.48 239.51 C 330.95 230.76 334.07 221.75 335.37 212.39 C 333.27 211.56 331.18 210.71 329.13 209.78 L 329.16 209.61 C 329.87 206.41 330.32 203.15 330.23 199.87 Z" />
</g>
<g id="#e0b83df5">
<path fill="#e0b83d" opacity="0.96" d=" M 193.99 204.64 C 194.75 205.36 195.51 206.09 196.27 206.82 C 195.84 207.75 195.42 208.68 195.00 209.61 C 192.21 215.60 189.14 221.45 186.35 227.44 C 186.02 225.86 185.66 224.29 185.30 222.72 C 188.20 216.69 191.13 210.68 193.99 204.64 Z" />
</g>
<g id="#f1d460ff">
<path fill="#f1d460" opacity="1.00" d=" M 196.27 206.82 C 200.81 210.71 205.20 214.80 209.85 218.57 C 212.17 216.37 214.44 214.13 216.72 211.88 C 216.88 213.19 217.06 214.50 217.25 215.81 C 214.90 218.29 212.44 220.66 209.96 223.01 C 205.04 218.46 199.80 214.28 195.00 209.61 C 195.42 208.68 195.84 207.75 196.27 206.82 Z" />
</g>
<g id="#00000037">
<path fill="#000000" opacity="0.22" d=" M 43.70 212.15 C 44.39 211.14 45.12 210.16 45.90 209.22 C 49.51 211.49 53.66 212.70 57.87 213.20 C 58.81 217.18 59.60 221.19 60.67 225.13 C 59.28 226.08 57.99 227.96 56.05 227.25 C 51.95 225.52 49.04 221.88 46.35 218.47 C 45.12 216.58 43.41 214.54 43.70 212.15 Z" />
</g>
<g id="#d5ab31ed">
<path fill="#d5ab31" opacity="0.93" d=" M 185.30 222.72 C 185.66 224.29 186.02 225.86 186.35 227.44 C 186.13 228.03 185.67 229.20 185.45 229.78 C 185.86 230.01 186.68 230.45 187.10 230.67 C 186.54 234.16 186.17 237.67 185.87 241.18 C 183.31 240.03 180.75 238.88 178.19 237.74 C 178.56 236.79 178.93 235.83 179.29 234.88 L 179.61 234.61 C 181.64 230.71 183.32 226.64 185.30 222.72 Z" />
</g>
<g id="#f7e379ff">
<path fill="#f7e379" opacity="1.00" d=" M 227.54 231.78 C 228.74 231.18 229.95 230.59 231.16 229.99 C 231.06 233.75 231.06 237.51 231.19 241.27 C 227.72 242.67 224.12 243.69 220.48 244.52 C 220.19 241.09 219.96 237.65 219.86 234.21 C 222.47 233.56 225.00 232.64 227.54 231.78 Z" />
</g>
<g id="#fee66eff">
<path fill="#fee66e" opacity="1.00" d=" M 261.22 229.73 C 267.32 236.08 273.90 241.96 280.03 248.26 C 278.39 251.26 275.28 253.15 272.97 255.63 C 269.41 259.23 265.31 262.24 261.12 265.06 C 261.12 260.94 261.03 256.82 260.85 252.71 C 262.54 251.34 264.24 250.00 265.92 248.62 C 264.29 246.82 262.60 245.06 260.88 243.36 C 261.04 238.82 261.12 234.27 261.22 229.73 Z" />
</g>
<g id="#e0ba40f6">
<path fill="#e0ba40" opacity="0.96" d=" M 187.10 230.67 C 190.67 232.56 194.58 233.64 198.49 234.58 C 197.94 237.94 197.68 241.34 197.82 244.74 C 193.75 243.90 189.72 242.76 185.87 241.18 C 186.17 237.67 186.54 234.16 187.10 230.67 Z" />
</g>
<g id="#0000002f">
<path fill="#000000" opacity="0.18" d=" M 236.57 238.76 C 240.67 236.66 244.46 234.02 247.96 231.02 C 249.16 232.16 250.35 233.30 251.55 234.45 C 254.65 237.43 257.79 240.36 260.88 243.36 C 262.60 245.06 264.29 246.82 265.92 248.62 C 264.24 250.00 262.54 251.34 260.85 252.71 C 257.18 255.62 253.22 258.13 249.15 260.43 L 249.18 260.63 C 247.22 261.41 245.34 262.35 243.45 263.27 C 241.46 264.11 239.47 264.96 237.47 265.76 C 236.91 265.87 235.80 266.09 235.24 266.21 L 234.94 266.76 C 231.46 267.58 228.01 268.57 224.48 269.18 C 229.37 265.85 235.80 264.35 239.08 259.04 C 240.38 257.42 240.06 254.80 238.26 253.70 C 234.50 250.76 229.52 252.58 225.36 253.43 C 213.00 256.80 199.51 259.14 187.07 254.85 C 182.45 252.98 177.12 250.41 175.73 245.16 C 174.32 241.43 175.58 236.73 179.29 234.88 C 178.93 235.83 178.56 236.79 178.19 237.74 C 180.75 238.88 183.31 240.03 185.87 241.18 C 189.72 242.76 193.75 243.90 197.82 244.74 C 201.82 245.01 205.76 245.91 209.77 245.87 C 213.01 245.40 216.27 245.05 219.52 244.72 L 220.48 244.52 C 224.12 243.69 227.72 242.67 231.19 241.27 C 232.33 240.79 233.45 240.26 234.58 239.75 C 235.08 239.51 236.08 239.01 236.57 238.76 Z" />
</g>
<g id="#f3d867ff">
<path fill="#f3d867" opacity="1.00" d=" M 208.88 235.42 C 212.54 235.06 216.28 235.17 219.86 234.21 C 219.96 237.65 220.19 241.09 220.48 244.52 L 219.52 244.72 C 216.27 245.05 213.01 245.40 209.77 245.87 C 208.96 242.45 208.72 238.93 208.88 235.42 Z" />
<path fill="#f3d867" opacity="1.00" d=" M 210.97 271.01 C 212.66 270.98 214.34 270.96 216.03 270.95 C 216.02 272.34 216.01 273.74 216.01 275.14 C 215.99 278.76 216.00 282.37 216.01 285.99 C 217.35 285.99 218.70 285.99 220.04 285.99 C 220.12 289.34 220.17 292.69 220.20 296.04 L 219.70 296.04 C 216.82 296.00 213.93 295.99 211.05 296.00 C 210.90 287.67 211.10 279.34 210.97 271.01 Z" />
</g>
<g id="#efcd55ff">
<path fill="#efcd55" opacity="1.00" d=" M 198.49 234.58 C 201.92 235.10 205.40 235.37 208.88 235.42 C 208.72 238.93 208.96 242.45 209.77 245.87 C 205.76 245.91 201.82 245.01 197.82 244.74 C 197.68 241.34 197.94 237.94 198.49 234.58 Z" />
</g>
<g id="#fee264ff">
<path fill="#fee264" opacity="1.00" d=" M 325.31 244.46 C 326.04 242.82 326.78 241.17 327.48 239.51 C 328.38 245.19 327.61 250.96 328.48 256.64 C 327.76 257.91 327.03 259.18 326.30 260.46 C 323.04 266.03 319.40 271.40 315.42 276.48 C 315.16 272.16 314.76 267.86 314.48 263.55 C 315.54 261.87 316.61 260.20 317.71 258.55 C 319.29 255.88 320.82 253.19 322.31 250.48 C 323.28 248.46 324.28 246.45 325.31 244.46 Z" />
</g>
<g id="#dfaf23f5">
<path fill="#dfaf23" opacity="0.96" d=" M 150.20 247.74 C 152.77 250.17 155.58 252.33 158.39 254.48 C 158.30 256.64 158.07 258.83 158.31 261.00 C 159.39 263.42 161.12 265.55 161.38 268.29 C 157.28 265.96 153.31 263.38 149.61 260.45 C 149.83 256.21 150.01 251.97 150.20 247.74 Z" />
</g>
<g id="#fdec7fff">
<path fill="#fdec7f" opacity="1.00" d=" M 249.15 260.43 C 253.22 258.13 257.18 255.62 260.85 252.71 C 261.03 256.82 261.12 260.94 261.12 265.06 C 257.62 267.32 254.03 269.44 250.30 271.28 C 250.29 267.70 249.98 264.12 249.18 260.63 L 249.15 260.43 Z" />
</g>
<g id="#cda123e8">
<path fill="#cda123" opacity="0.91" d=" M 158.39 254.48 C 165.84 260.03 174.33 263.97 183.03 267.13 C 183.02 269.48 183.02 271.84 183.01 274.20 C 182.99 278.46 183.01 282.72 183.01 286.98 C 183.44 286.98 184.30 286.98 184.73 286.98 C 184.62 290.32 184.62 293.66 184.71 297.00 C 181.67 297.00 178.64 297.02 175.61 297.02 C 174.52 297.00 173.43 296.98 172.34 296.96 C 172.29 289.11 172.56 281.26 172.20 273.43 C 168.44 272.06 164.79 270.40 161.38 268.29 C 161.12 265.55 159.39 263.42 158.31 261.00 C 158.07 258.83 158.30 256.64 158.39 254.48 Z" />
</g>
<g id="#fdf18eff">
<path fill="#fdf18e" opacity="1.00" d=" M 243.45 263.27 C 245.34 262.35 247.22 261.41 249.18 260.63 C 249.98 264.12 250.29 267.70 250.30 271.28 C 246.77 272.94 243.14 274.36 239.52 275.78 C 237.96 276.18 236.42 276.62 234.87 277.07 C 234.99 273.63 234.82 270.19 234.94 266.76 L 235.24 266.21 C 235.80 266.09 236.91 265.87 237.47 265.76 C 239.47 264.96 241.46 264.11 243.45 263.27 Z" />
</g>
<g id="#fee66fff">
<path fill="#fee66f" opacity="1.00" d=" M 299.20 282.35 C 304.84 276.57 309.86 270.18 314.48 263.55 C 314.76 267.86 315.16 272.16 315.42 276.48 C 310.73 282.42 305.74 288.10 300.22 293.28 C 300.29 289.61 300.05 285.93 299.20 282.35 Z" />
</g>
<g id="#e7c146fb">
<path fill="#e7c146" opacity="1.00" d=" M 190.04 268.87 C 193.95 269.96 198.02 269.90 202.00 270.59 C 201.61 274.01 201.69 277.48 202.60 280.83 C 201.97 280.79 200.71 280.72 200.08 280.68 C 200.12 286.12 200.14 291.56 200.12 297.01 C 196.80 297.00 193.48 296.97 190.15 296.99 C 190.20 293.65 190.18 290.31 190.09 286.98 C 189.98 282.37 190.05 277.76 190.04 273.15 C 190.04 271.72 190.04 270.29 190.04 268.87 Z" />
</g>
<g id="#f0d15cff">
<path fill="#f0d15c" opacity="1.00" d=" M 202.00 270.59 C 204.96 271.12 207.98 271.03 210.97 271.01 C 211.10 279.34 210.90 287.67 211.05 296.00 C 209.36 296.00 207.68 296.00 206.00 296.00 C 205.99 291.01 206.00 286.02 206.01 281.02 C 205.16 280.97 203.45 280.88 202.60 280.83 C 201.69 277.48 201.61 274.01 202.00 270.59 Z" />
</g>
<g id="#00000039">
<path fill="#000000" opacity="0.22" d=" M 216.01 275.14 C 218.67 274.39 221.33 273.64 223.99 272.89 C 224.03 277.25 224.02 281.62 223.98 285.98 C 222.66 285.98 221.35 285.98 220.04 285.99 C 218.70 285.99 217.35 285.99 216.01 285.99 C 216.00 282.37 215.99 278.76 216.01 275.14 Z" />
</g>
<g id="#00000047">
<path fill="#000000" opacity="0.28" d=" M 200.08 280.68 C 200.71 280.72 201.97 280.79 202.60 280.83 C 203.45 280.88 205.16 280.97 206.01 281.02 C 206.00 286.02 205.99 291.01 206.00 296.00 C 207.68 296.00 209.36 296.00 211.05 296.00 C 213.93 295.99 216.82 296.00 219.70 296.04 C 217.69 298.94 214.83 301.01 212.04 303.09 C 206.71 302.40 201.16 302.10 196.03 304.03 L 195.51 304.24 C 194.14 304.87 192.80 305.55 191.46 306.24 C 185.65 304.27 179.58 301.93 175.61 297.02 C 178.64 297.02 181.67 297.00 184.71 297.00 C 186.52 296.99 188.34 296.99 190.15 296.99 C 193.48 296.97 196.80 297.00 200.12 297.01 C 200.14 291.56 200.12 286.12 200.08 280.68 Z" />
</g>
<g id="#feeb7bff">
<path fill="#feeb7b" opacity="1.00" d=" M 282.88 296.75 C 288.65 292.34 294.19 287.63 299.20 282.35 C 300.05 285.93 300.29 289.61 300.22 293.28 C 294.72 298.22 288.99 302.90 282.91 307.10 C 282.95 303.65 282.95 300.20 282.88 296.75 Z" />
</g>
<g id="#ddb237f4">
<path fill="#ddb237" opacity="0.96" d=" M 184.73 286.98 C 186.51 286.98 188.30 286.98 190.09 286.98 C 190.18 290.31 190.20 293.65 190.15 296.99 C 188.34 296.99 186.52 296.99 184.71 297.00 C 184.62 293.66 184.62 290.32 184.73 286.98 Z" />
</g>
<g id="#d7a822ee">
<path fill="#d7a822" opacity="0.93" d=" M 108.91 288.99 C 114.98 294.31 121.36 299.30 128.23 303.57 C 127.97 306.65 127.87 309.74 127.95 312.84 C 121.85 309.21 115.91 305.28 110.44 300.76 C 110.54 296.76 108.57 293.03 108.91 288.99 Z" />
</g>
<g id="#fdef8aff">
<path fill="#fdef8a" opacity="1.00" d=" M 267.61 306.76 C 272.88 303.71 278.02 300.42 282.88 296.75 C 282.95 300.20 282.95 303.65 282.91 307.10 C 278.57 310.06 274.11 312.84 269.47 315.30 C 266.82 316.68 264.15 318.01 261.46 319.31 C 259.17 320.39 256.85 321.42 254.49 322.32 C 250.07 324.10 245.56 325.60 240.99 326.95 C 241.03 324.03 241.05 321.12 241.09 318.21 C 242.59 317.74 244.08 317.23 245.58 316.74 C 246.54 316.38 247.51 316.04 248.48 315.72 C 250.47 314.89 252.47 314.11 254.46 313.28 C 258.92 311.27 263.30 309.09 267.61 306.76 Z" />
</g>
<g id="#f1d25dff">
<path fill="#f1d25d" opacity="1.00" d=" M 196.03 304.03 C 201.16 302.10 206.71 302.40 212.04 303.09 L 211.79 303.30 C 210.79 306.16 210.80 309.22 211.16 312.20 C 206.30 310.05 200.87 311.01 196.29 313.37 C 196.13 310.25 196.05 307.14 196.03 304.03 Z" />
<path fill="#f1d25d" opacity="1.00" d=" M 195.43 352.60 C 195.66 349.59 196.03 346.58 196.96 343.70 C 197.60 343.97 198.88 344.50 199.52 344.76 C 200.65 345.06 201.78 345.37 202.91 345.68 C 205.51 346.37 208.13 345.47 210.64 344.85 C 210.88 347.79 211.16 350.73 211.47 353.67 C 206.15 354.28 200.52 354.63 195.43 352.60 Z" />
</g>
<g id="#ca9c20e3">
<path fill="#ca9c20" opacity="0.89" d=" M 128.23 303.57 C 133.18 306.61 138.29 309.37 143.56 311.80 C 143.79 311.88 144.25 312.02 144.47 312.10 C 145.76 312.71 147.05 313.32 148.35 313.90 C 148.20 316.74 148.00 319.57 147.87 322.41 C 140.95 319.83 134.35 316.48 127.95 312.84 C 127.87 309.74 127.97 306.65 128.23 303.57 Z" />
</g>
<g id="#eecb51ff">
<path fill="#eecb51" opacity="1.00" d=" M 195.51 304.24 L 196.03 304.03 C 196.05 307.14 196.13 310.25 196.29 313.37 C 193.31 315.47 190.89 318.23 189.06 321.38 C 187.87 325.23 187.40 329.43 188.57 333.35 C 189.95 337.74 193.12 341.28 196.96 343.70 C 196.03 346.58 195.66 349.59 195.43 352.60 C 191.27 350.83 187.51 348.05 184.76 344.45 C 185.21 333.80 185.46 323.08 184.61 312.45 C 186.45 309.93 188.88 307.95 191.46 306.24 C 192.80 305.55 194.14 304.87 195.51 304.24 Z" />
</g>
<g id="#e8c247fb">
<path fill="#e8c247" opacity="1.00" d=" M 179.72 322.53 C 180.89 318.97 182.33 315.45 184.61 312.45 C 185.46 323.08 185.21 333.80 184.76 344.45 C 183.86 343.25 183.04 342.00 182.19 340.78 C 180.85 337.64 179.83 334.39 179.16 331.05 C 177.85 330.75 176.54 330.44 175.22 330.18 C 175.09 327.39 174.97 324.60 174.85 321.81 C 176.47 322.05 178.10 322.28 179.72 322.53 Z" />
</g>
<g id="#f6e175ff">
<path fill="#f6e175" opacity="1.00" d=" M 225.44 312.32 C 227.48 315.02 228.92 318.09 230.24 321.19 C 233.31 320.34 236.42 319.57 239.49 318.70 C 239.89 318.57 240.69 318.33 241.09 318.21 C 241.05 321.12 241.03 324.03 240.99 326.95 C 237.80 327.89 234.56 328.71 231.29 329.32 C 230.90 331.74 230.35 334.13 229.87 336.54 C 228.70 339.37 227.33 342.14 225.45 344.58 C 224.59 333.86 224.74 323.04 225.44 312.32 Z" />
</g>
<g id="#d4aa2fec">
<path fill="#d4aa2f" opacity="0.93" d=" M 148.35 313.90 C 154.01 316.25 159.85 318.14 165.76 319.74 C 165.82 322.58 165.91 325.42 166.04 328.26 C 159.86 326.71 153.75 324.86 147.87 322.41 C 148.00 319.57 148.20 316.74 148.35 313.90 Z" />
</g>
<g id="#ddb63cf3">
<path fill="#ddb63c" opacity="0.95" d=" M 165.76 319.74 C 168.35 320.40 170.96 321.02 173.59 321.57 C 173.90 321.63 174.53 321.75 174.85 321.81 C 174.97 324.60 175.09 327.39 175.22 330.18 C 172.53 329.70 169.85 329.14 167.19 328.54 C 166.90 328.47 166.32 328.33 166.04 328.26 C 165.91 325.42 165.82 322.58 165.76 319.74 Z" />
</g>
</svg>
